<?xml version="1.0" encoding="UTF-8" standalone="no"?>
<svg width="50px" height="50px" viewBox="0 0 50 50" version="1.1" xmlns="http://www.w3.org/2000/svg" xmlns:xlink="http://www.w3.org/1999/xlink" xmlns:sketch="http://www.bohemiancoding.com/sketch/ns">
    <!-- Generator: Sketch 3.2.2 (9983) - http://www.bohemiancoding.com/sketch -->
    <title>Victoire</title>
    <desc>Created with Sketch.</desc>
    <defs></defs>
    <g id="Page-1" stroke="none" stroke-width="1" fill="none" fill-rule="evenodd" sketch:type="MSPage">
        <path d="M39.8483386,10.8707671 L39.7305574,10.7597158 L39.6195065,10.6414534 C39.6195065,10.6414534 34.4121334,11.1404631 30.1027822,15.8714401 L28.0865596,15.8594216 C28.0865596,15.8594216 24.0493071,19.2654751 23.5426074,20.5529008 L27.3640077,19.8226545 C27.175077,20.1832106 26.9928766,20.5567467 26.8183681,20.9456666 L26.9746085,21.1211373 L26.7265468,21.3879488 C26.7265468,21.3879488 27.3923714,22.2758783 27.7808091,22.7037383 L28.9980422,23.6921428 L29.3066771,23.4546565 L29.5133952,23.6402227 C29.9023137,23.4661943 30.2917129,23.2988962 30.6513062,23.1109263 L29.9306773,26.9400323 C31.2166562,26.43285 34.6294278,22.4032748 34.6294278,22.4032748 L34.6183708,20.387045 C39.3498115,16.0776782 39.8483386,10.8707671 39.8483386,10.8707671 L39.8483386,10.8707671 Z M42.6861454,7.31328002 C32.9338586,-2.43808048 17.0660813,-2.43808048 7.31475597,7.31520298 C-2.43753084,17.0670442 -2.43849232,32.934398 7.31331375,42.6852778 C17.0660813,52.4380805 32.9333779,52.4380805 42.6861454,42.6862393 C52.4374708,32.9334365 52.4384323,17.0660827 42.6861454,7.31328002 Z M36.0721278,13.5874373 C36.4427782,13.5874373 36.7427598,13.88742 36.7427598,14.2575909 C36.7427598,14.6282426 36.4427782,14.9282253 36.0721278,14.9282253 C35.7024389,14.9282253 35.4024573,14.6282426 35.4024573,14.2575909 C35.4024573,13.88742 35.7024389,13.5874373 36.0721278,13.5874373 Z M18.405903,29.205767 L18.5760849,29.2798012 C18.6919432,29.332202 18.8116474,29.3802761 18.9246212,29.4408496 C19.383247,29.6783359 19.8029328,29.9989904 20.1831979,30.3595466 L20.4394322,30.6455878 C20.4798144,30.6927004 20.5201965,30.730679 20.5610594,30.7869258 L20.5807697,30.8128858 L27.1318104,22.9335327 C27.1318104,22.9335327 24.206509,25.672317 20.1187788,28.2111128 C19.4582424,28.6226275 18.8952961,28.9456858 18.405903,29.205767 Z M8.14980094,20.9956637 C8.14739724,20.9586466 8.14643576,20.9182643 8.1445128,20.8749976 C8.13682096,20.8312501 8.1324943,20.7841375 8.12624469,20.7351018 C8.11855285,20.6855855 8.10413066,20.6341461 8.0925929,20.5788608 C8.07865145,20.5250178 8.05846038,20.4702133 8.04211523,20.4115628 C8.0175975,20.355316 7.99452199,20.2966656 7.96567761,20.2384959 C7.93394878,20.1822491 7.90798884,20.1202335 7.86616448,20.0639867 C7.79645721,19.9466858 7.69934778,19.8385189 7.59358503,19.7346788 C7.48589932,19.6322808 7.35946477,19.5467089 7.22485763,19.4717132 C7.19024437,19.4548872 7.15611185,19.4380613 7.12101785,19.4217161 C7.10419195,19.412582 7.08592384,19.4058516 7.06861721,19.399602 L7.01573584,19.3803723 L6.9633352,19.3601812 C6.94602857,19.3534508 6.92295306,19.3496048 6.90420421,19.3438359 L6.78738445,19.3130685 C6.63354773,19.2837433 6.47682656,19.2717247 6.32154762,19.2803781 C6.16963386,19.2948003 6.01916231,19.3222026 5.87974778,19.3731612 C5.74177547,19.4250813 5.60812981,19.4837317 5.49611745,19.5630541 C5.43602498,19.5981482 5.38747026,19.6442994 5.33555037,19.6827587 C5.28507269,19.7245832 5.23988316,19.7688114 5.19613584,19.8111167 C5.15671518,19.8572679 5.1158523,19.8995731 5.08220051,19.9438013 C5.04951021,19.988991 5.01585843,20.0303348 4.98941774,20.07264 C4.96201557,20.115426 4.93894007,20.1562891 4.91538382,20.1937869 C4.89567349,20.2322462 4.87788612,20.2683018 4.86154096,20.3000308 C4.85817579,20.3077226 4.85529135,20.314453 4.85144543,20.3211834 C4.84567655,20.3096456 4.83750398,20.2976271 4.84086915,20.284647 C4.85096469,20.2485914 4.84663803,20.2077284 4.86106022,20.1635002 C4.87692464,20.1202335 4.88846239,20.0750438 4.90817272,20.0255274 C4.92980601,19.976011 4.95480448,19.9269754 4.9817259,19.8740938 C5.01008955,19.8207315 5.04854873,19.7712151 5.08412347,19.7149684 C5.12498635,19.6640098 5.16825293,19.6092052 5.21680765,19.5568044 C5.2682468,19.5068073 5.3201667,19.4529643 5.38218213,19.4068131 C5.49900189,19.3082611 5.64130086,19.2255735 5.79609906,19.157789 C5.8364812,19.1424053 5.87542112,19.1275023 5.91532252,19.1121185 C5.9561854,19.0976963 5.99897124,19.0885622 6.04127634,19.0755822 L6.10377251,19.0597177 L6.16867238,19.0491414 C6.21386191,19.042411 6.25712849,19.0332769 6.30231803,19.029431 C6.479711,19.0116436 6.66239211,19.0255851 6.84170804,19.0577948 L6.9705463,19.0928889 C6.99121811,19.0986578 7.00948622,19.102023 7.03256173,19.1111571 L7.09842308,19.1351941 C7.14072818,19.1534623 7.18832141,19.1664423 7.22581911,19.1885564 C7.26716273,19.2087476 7.30658339,19.2294195 7.34648479,19.2500914 C7.38542471,19.2717247 7.42244168,19.2967233 7.45993938,19.3202796 L7.51522445,19.356816 L7.5666636,19.3981597 C7.59983465,19.4265235 7.63540939,19.4520028 7.66665748,19.481328 C7.69694408,19.5120955 7.72723069,19.5414207 7.75655581,19.5712267 C7.87097187,19.6957387 7.96856205,19.8284234 8.03634635,19.9673577 C8.07528627,20.0341807 8.09932326,20.104369 8.12624469,20.1707113 C8.14980094,20.2389766 8.16854979,20.3062804 8.18489494,20.370219 C8.19691343,20.4355999 8.21133563,20.4971348 8.21566228,20.5567467 C8.21998894,20.6178009 8.22575782,20.6735669 8.22575782,20.7269292 C8.22335412,20.7802915 8.22239264,20.8302886 8.21998894,20.8754783 C8.2147008,20.9201873 8.20652823,20.9615311 8.20075935,20.9990289 C8.19883639,21.0177778 8.19595195,21.0355653 8.19306751,21.0523912 C8.18874086,21.0687364 8.18489494,21.0826779 8.18104902,21.0971002 C8.17335718,21.1259447 8.16662683,21.1499817 8.16181943,21.1692114 C8.14980094,21.2076707 8.1445128,21.2278619 8.1445128,21.2278619 C8.1445128,21.2278619 8.1445128,21.2067092 8.14643576,21.166327 C8.14739724,21.1466165 8.14835872,21.1220987 8.14980094,21.093735 C8.15076242,21.078832 8.15076242,21.063929 8.1517239,21.0471031 C8.15076242,21.0312386 8.15076242,21.0144126 8.14980094,20.9956637 L8.14980094,20.9956637 Z M3.59623391,20.4264658 C3.72266847,20.4264658 3.85631412,20.3452205 3.99813235,20.3586812 C4.14043132,20.3755072 4.40003079,20.3658924 4.55434826,20.3976213 C4.64328511,20.4245428 4.57694302,20.4303117 4.80385219,20.4630021 C4.80144849,20.4697325 4.79808332,20.4658866 4.79567962,20.4721362 C4.79471814,20.4745399 4.7942374,20.468771 4.79327592,20.470694 C4.8317351,20.4846355 4.86779058,20.4904044 4.90576902,20.5053074 C5.0615287,20.5754957 5.22786466,20.6413572 5.38266287,20.7379863 C5.70379703,20.9110532 6.01002826,21.1543084 6.29462619,21.4369844 C6.36337198,21.5119801 6.43163703,21.5855335 6.50182503,21.6614907 C6.56768638,21.7379286 6.62489441,21.8244621 6.68931354,21.9071496 L6.78209631,22.0321424 L6.86189911,22.1662693 C6.91574197,22.2585716 6.97343074,22.3475088 7.02054324,22.4412534 C7.2147621,22.8205584 7.34263888,23.2363998 7.42772981,23.6613753 L7.46282382,23.9757803 C7.46618899,24.0267388 7.47628453,24.0704863 7.47724601,24.1296175 L7.48061119,24.2954733 C7.47868823,24.4055631 7.49070672,24.5219026 7.47532305,24.6262235 C7.46474678,24.7334288 7.45513198,24.8401535 7.44503645,24.9459166 C7.43061425,25.0507182 7.40609652,25.1531162 7.38734767,25.2579178 L7.35369589,25.4107936 L7.30754487,25.560785 C7.27437383,25.659337 7.24937536,25.7607734 7.21091618,25.854518 C7.17053404,25.9473011 7.1301519,26.040565 7.09073124,26.1333481 C6.91429975,26.4939042 6.70613943,26.8251351 6.46000067,27.0957926 C6.34510387,27.2390535 6.21097748,27.3558737 6.0879081,27.4731746 C5.95762762,27.5842259 5.82494345,27.6837394 5.69898963,27.7765225 C5.56294028,27.8582486 5.44131312,27.9452628 5.31151338,28.0082399 C5.18123291,28.0678519 5.0615287,28.1303483 4.94374746,28.1764994 C4.82548548,28.2188047 4.7144346,28.2596677 4.61203703,28.2928389 C4.50675502,28.3212026 4.40820337,28.3399515 4.32070873,28.3606234 C4.27792289,28.3702383 4.23609853,28.3803338 4.19715861,28.3885064 C4.15725721,28.3942753 4.12072099,28.3971598 4.08610773,28.4019672 C4.0168812,28.4101398 3.95823095,28.415428 3.91159919,28.4207161 C3.81593198,28.4293695 3.76593505,28.4341769 3.76593505,28.4341769 C3.76593505,28.4341769 3.81400902,28.4168702 3.90294588,28.3861027 C3.94813542,28.3702383 4.00245901,28.3514893 4.06687814,28.3293752 C4.10004918,28.3178374 4.13370096,28.3062996 4.17264088,28.2928389 C4.20629267,28.2788974 4.24330963,28.2611099 4.28321103,28.2433225 C4.36397531,28.2067862 4.45243143,28.1702498 4.54617568,28.1265023 C4.63607402,28.0721785 4.73606789,28.0217007 4.83990767,27.9640117 C4.94278598,27.9043998 5.04422207,27.8274811 5.15479222,27.7539277 C5.26199719,27.677009 5.36775993,27.5832644 5.48073378,27.494808 C5.58409283,27.3938523 5.69370149,27.2919351 5.79802202,27.1775186 C5.89465071,27.0568525 6.00906678,26.946282 6.09752289,26.8059054 C6.29558767,26.5472665 6.45038588,26.237669 6.58691597,25.9150914 C6.7215231,25.5877065 6.7989222,25.2324385 6.84651544,24.8704402 C6.85420728,24.7786185 6.86189911,24.6872777 6.86718725,24.595456 C6.87295613,24.5483434 6.87151391,24.5041152 6.86911021,24.4608484 L6.86718725,24.3267215 L6.86430281,24.1935561 C6.86574503,24.1502894 6.85420728,24.0959656 6.85036136,24.0478915 L6.8157481,23.764254 C6.74604083,23.3984097 6.63835512,23.040738 6.48259544,22.7080649 C6.31818244,22.3821222 6.1254058,22.0715632 5.89272775,21.8076361 C5.65668453,21.547555 5.41102651,21.3052612 5.13748559,21.1259447 C5.00672437,21.0235467 4.86250244,20.9576851 4.73222197,20.8754783 C4.59521114,20.8004827 4.4582003,20.7399092 4.32647761,20.6798166 C4.18946678,20.6331846 4.06110926,20.5783801 3.93419396,20.543286 C3.80631719,20.5110763 3.68517077,20.4711747 3.56787026,20.4480992 C3.49672078,20.4360806 3.43326313,20.5312674 3.36740178,20.5202104 C3.38134324,20.4538681 3.39672691,20.4264658 3.4111491,20.4264658 L3.59623391,20.4264658 L3.59623391,20.4264658 Z M40.6444437,40.6450109 C40.1286099,41.1613272 39.5916236,41.6444724 39.0387729,42.0987731 C39.0479069,42.0064708 39.055118,41.9122454 39.0507914,41.8156164 C39.0628099,41.4896737 39.0084863,41.148828 38.9339716,40.8075015 C38.8532073,40.4652135 38.7118698,40.1310982 38.5412072,39.806117 C38.493614,39.7282368 38.447463,39.6503567 38.3979468,39.5715151 C38.3758327,39.5311328 38.3503535,39.4950772 38.3224706,39.4604638 L38.2431486,39.3537392 L38.1633458,39.2455724 C38.1417125,39.2104782 38.0998881,39.1724997 38.06864,39.1359633 L37.8763441,38.9253985 C37.6085721,38.6682018 37.3143593,38.4393689 36.9951481,38.2590908 C36.6716103,38.0884276 36.3370154,37.9480511 35.9947287,37.8668058 C35.652442,37.7927716 35.3115975,37.737967 34.9856559,37.7499856 C34.8217237,37.741813 34.6645218,37.769696 34.5111658,37.7793108 C34.4207867,37.7903679 34.3337728,37.8043094 34.2477204,37.8206546 C34.4212675,37.9547815 34.5770271,38.1014076 34.7015387,38.2610138 C34.7832645,38.3513932 34.8447992,38.4533104 34.9092183,38.5475357 C34.9678686,38.645607 35.0183462,38.744159 35.064978,38.8383843 C35.1034372,38.9369363 35.1476652,39.026835 35.1750674,39.1191374 C35.1991044,39.210959 35.227468,39.296531 35.2447747,39.38018 C35.2582354,39.463829 35.2740998,39.5402669 35.2846761,39.6118974 C35.2909257,39.6844894 35.2928486,39.7513124 35.2966946,39.8109244 C35.2981368,39.8412111 35.3000597,39.8695748 35.3010212,39.8955349 C35.3010212,39.9229371 35.2981368,39.947455 35.297656,39.9705305 C35.2971753,39.9791839 35.2966946,39.986395 35.2957331,39.9945676 C35.3091938,39.9979328 35.3231352,40.0008173 35.336596,40.0056247 C35.4995667,40.0561025 35.6538842,40.1363864 35.7981061,40.2315732 L35.8981,40.309934 C35.9134837,40.3238755 35.9288673,40.3330096 35.9456932,40.3488741 L35.9932865,40.3950253 C36.025496,40.427235 36.0610708,40.4560795 36.0870307,40.4897314 C36.1139522,40.5229025 36.1418351,40.5551122 36.1692372,40.5882834 C36.1947164,40.6214545 36.2173112,40.6579909 36.2418289,40.6916428 L36.2754807,40.7445244 L36.3057673,40.7998096 C36.3245162,40.836346 36.3461495,40.8719209 36.3624946,40.9094187 C36.3778783,40.947878 36.3923005,40.9853758 36.4072034,41.0223929 C36.461527,41.1738265 36.496621,41.3267023 36.5043128,41.4728477 C36.5124854,41.5454397 36.5086395,41.6165894 36.5081588,41.6848547 C36.5028706,41.75312 36.4932558,41.8185009 36.4841218,41.8805165 C36.4692188,41.9425322 36.459604,42.0016634 36.4418167,42.0559872 C36.4216256,42.1093495 36.4072034,42.1612695 36.3865316,42.2074207 C36.3644176,42.2535719 36.3456687,42.2963579 36.3254776,42.335298 C36.3043251,42.3723151 36.2822111,42.4064477 36.2634622,42.4367344 C36.2538474,42.4521181 36.2461556,42.4665404 36.2365408,42.4800012 C36.2278875,42.4929812 36.2177919,42.504519 36.2091386,42.515576 C36.1913513,42.5372094 36.1769291,42.5554776 36.165872,42.5703806 C36.1413543,42.6001865 36.1288551,42.6155703 36.1288551,42.6155703 C36.1288551,42.6155703 36.1370277,42.5968213 36.1528921,42.5626887 C36.1620261,42.5463435 36.1706794,42.5251909 36.1831787,42.5001923 C36.1889476,42.4881738 36.1951972,42.474713 36.202889,42.4607715 C36.2076964,42.44683 36.2134653,42.4304848 36.2197149,42.4146203 C36.2317334,42.3819299 36.2461556,42.346355 36.2605778,42.3069342 C36.2697118,42.2665519 36.2831726,42.2237659 36.2961525,42.1776148 C36.308171,42.1319443 36.3149014,42.080505 36.3254776,42.0285849 C36.3331695,41.9766648 36.3365347,41.9208988 36.3427843,41.8636906 C36.3437458,41.8060016 36.345188,41.7463896 36.3418228,41.6838932 C36.3346117,41.6223583 36.3350924,41.5584197 36.3206703,41.4944811 C36.3024021,41.3651616 36.2572126,41.2339192 36.2038505,41.1045997 C36.1490462,40.9743188 36.0687626,40.8522104 35.9798258,40.7368325 C35.955308,40.7094302 35.931271,40.6815472 35.9067533,40.654145 C35.8952156,40.639242 35.8827163,40.6272234 35.8687749,40.6156856 L35.8303157,40.5786685 L35.7918565,40.5416514 C35.779838,40.5291522 35.7615699,40.5171336 35.7461862,40.5051151 L35.6558072,40.4349268 C35.5317763,40.3517586 35.4005343,40.282051 35.2620813,40.2330154 C35.122186,40.1883064 34.9798871,40.1565775 34.839511,40.1479242 C34.699135,40.142636 34.5611627,40.144559 34.4328052,40.1714805 C34.3669439,40.1801338 34.3082936,40.2027287 34.2472397,40.2166702 C34.1881087,40.2344576 34.1318621,40.2565717 34.0780193,40.2767629 C34.0265801,40.3032037 33.9746602,40.3243563 33.9289899,40.3498356 C33.8842811,40.3772379 33.8386109,40.4012749 33.7991902,40.4277157 C33.7602503,40.4560795 33.7237141,40.4825202 33.6900623,40.5065573 C33.6588142,40.5320366 33.6290083,40.5579967 33.6035291,40.5801108 C33.5905491,40.5921293 33.5770884,40.6027056 33.5655507,40.6123204 C33.5540129,40.6238582 33.5443981,40.6344346 33.5347833,40.6440494 C33.515073,40.6637598 33.4987278,40.6805857 33.4857479,40.6940465 C33.4588264,40.720968 33.444885,40.7349095 33.444885,40.7349095 C33.444885,40.7349095 33.4549805,40.7180836 33.4742101,40.6858739 C33.4843057,40.6690479 33.4968049,40.6488568 33.5107463,40.6262619 C33.5189189,40.6137627 33.5256493,40.6017441 33.5347833,40.5882834 C33.5443981,40.5757841 33.5554551,40.5623233 33.5660314,40.5479011 C33.5876647,40.5200181 33.6131439,40.4882891 33.6405461,40.4541565 C33.6708327,40.423389 33.7040037,40.3897371 33.7400592,40.3536815 C33.7765954,40.3190681 33.8203427,40.2868585 33.8640901,40.2503221 C33.9087989,40.2147472 33.962161,40.1859027 34.0140809,40.1508086 C34.0693659,40.1210026 34.1280162,40.0892737 34.1900316,40.0618714 C34.25397,40.0373536 34.3198314,40.0089899 34.3914616,39.9921639 C34.5303954,39.9493779 34.6856743,39.930629 34.8462414,39.928706 C34.8871043,39.9301483 34.9274864,39.9320712 34.9678686,39.9339942 C35.0087314,39.9359172 35.0495943,39.9445705 35.0914187,39.9488972 L35.1529534,39.9580313 L35.2135266,39.9724535 C35.2255451,39.9758187 35.2370828,39.9791839 35.2481398,39.9820683 C35.2481398,39.9796646 35.2476591,39.9772609 35.2476591,39.975338 C35.2438132,39.9522624 35.2394865,39.9282253 35.2351599,39.902746 C35.2289103,39.8777474 35.2226606,39.8503452 35.2149688,39.8224622 C35.2005466,39.7657347 35.1856437,39.703719 35.1673756,39.6364152 C35.1423771,39.5710344 35.1183401,39.5003654 35.0914187,39.4248889 C35.064978,39.3498933 35.0245959,39.2748976 34.9885404,39.194133 C34.9505619,39.1143299 34.9015265,39.0345269 34.854414,38.9503971 C34.8005711,38.8701133 34.7452861,38.7864642 34.6823091,38.7047382 C34.6126019,38.6278195 34.5520287,38.5403246 34.4703029,38.4662904 C34.3217543,38.3066842 34.1342658,38.1706344 33.9376433,38.0446801 C33.7376555,37.9201681 33.5112271,37.8288272 33.2775876,37.7562352 C33.2184566,37.741813 33.1588448,37.72691 33.0982716,37.7129685 C33.0689465,37.7038344 33.0401021,37.6995077 33.0098155,37.6961425 L32.9223209,37.6831625 L32.833384,37.6697017 C32.8050204,37.6634521 32.7684842,37.6644136 32.7357938,37.6624906 L32.5449402,37.6538373 C32.2963977,37.6591254 32.048336,37.6894122 31.8122928,37.7557545 C31.579134,37.8278657 31.3541478,37.9201681 31.1527178,38.0437186 C30.9560952,38.1706344 30.768126,38.3057227 30.6200582,38.4662904 C30.5383324,38.5403246 30.4777592,38.6278195 30.4080519,38.7047382 C30.3441135,38.7864642 30.2883477,38.8701133 30.2349856,38.9499164 C30.1888346,39.0345269 30.1393184,39.1143299 30.1008592,39.1931715 C30.0652845,39.2744169 30.0244216,39.3498933 29.9979809,39.4244082 C29.972021,39.4998846 29.9470225,39.5710344 29.9229855,39.6368959 C29.9047174,39.7027575 29.8898145,39.7652539 29.875873,39.8205392 C29.8686619,39.8489029 29.8609701,39.8758245 29.8547205,39.9013038 C29.8494323,39.9263023 29.8465479,39.9508201 29.842702,39.9738957 C29.8350101,40.0195662 29.8287605,40.0580255 29.8239531,40.0892737 C29.8124154,40.1517701 29.8071272,40.185422 29.8071272,40.185422 C29.8071272,40.185422 29.8047235,40.1508086 29.8003969,40.0878315 C29.7979932,40.0561025 29.7960702,40.0176432 29.7931858,39.971492 C29.7917435,39.9484164 29.7888591,39.9238986 29.7888591,39.8974578 C29.7907821,39.8710171 29.7917435,39.8431341 29.794628,39.8123666 C29.7970317,39.7527546 29.8003969,39.6849701 29.8061657,39.6118974 C29.8177035,39.5402669 29.8316449,39.4633483 29.8465479,39.38018 C29.862893,39.296531 29.8917374,39.210959 29.9162551,39.1191374 C29.9436573,39.026835 29.9874046,38.9369363 30.0258638,38.8383843 C30.073457,38.744159 30.123454,38.645607 30.1821042,38.5475357 C30.2455619,38.4537911 30.308058,38.3518739 30.3897838,38.2610138 C30.4219934,38.21967 30.4570874,38.1802492 30.4926621,38.1403477 C30.4383385,38.0985232 30.380169,38.0591024 30.321038,38.020643 C30.1931612,37.94084 30.0484586,37.8821895 29.897987,37.8355576 C29.8595278,37.8264235 29.8220301,37.8168086 29.7830902,37.8081553 C29.7638606,37.8023864 29.7451118,37.799502 29.7263629,37.7970982 L29.6696356,37.7889256 L29.6129084,37.7802723 C29.595121,37.7764264 29.571084,37.7773878 29.5499314,37.7759456 L29.4283043,37.769696 C29.2677372,37.7735419 29.1100546,37.7932523 28.9581408,37.8350768 C28.8504551,37.868248 28.7485383,37.9115147 28.6504673,37.9610311 C28.6735429,38.0297771 28.6970991,38.0985232 28.7144057,38.1677499 C28.7331546,38.2629368 28.7538264,38.3557199 28.7740175,38.4489837 C28.8355522,38.8230006 28.8552625,39.1912486 28.8134381,39.5330558 C28.8033426,39.7061227 28.7639219,39.8690941 28.7345968,40.0277388 C28.6956569,40.1839798 28.6461407,40.3315674 28.6004704,40.4724247 C28.5398972,40.6089553 28.4932654,40.7435629 28.4293271,40.862306 C28.3615428,40.9791262 28.3048155,41.0925812 28.2379926,41.1916139 C28.1692468,41.2896852 28.1072314,41.3819876 28.0461775,41.4637136 C27.9807969,41.5425552 27.9163777,41.6113013 27.8596504,41.6747591 C27.8317675,41.7064881 27.8048461,41.7358133 27.7798476,41.7641771 C27.753407,41.7901371 27.7264855,41.8122512 27.7024485,41.8343653 C27.6534131,41.8785935 27.611108,41.9151299 27.5769755,41.9449359 C27.5284207,41.9872411 27.4966919,42.0146434 27.4827505,42.0271427 C27.5726488,42.0463723 27.6620664,42.0694479 27.7500418,42.0973309 L27.8976289,42.1583851 C27.9211851,42.1689614 27.9428184,42.175211 27.9692591,42.1891525 L28.043293,42.2290541 C28.091367,42.2559756 28.1461713,42.2795319 28.1884764,42.3117416 C28.2331852,42.3425091 28.2769326,42.3723151 28.3221221,42.4035633 C28.3649079,42.4352922 28.4043286,42.4713478 28.4456722,42.5049997 L28.5052839,42.5574005 L28.5596075,42.6136473 C28.595663,42.6525873 28.6341222,42.6881622 28.6668125,42.7285445 C28.6975798,42.7698883 28.7293087,42.8102706 28.7605568,42.8501721 C28.8773765,43.0155472 28.972563,43.1886141 29.0312132,43.3640848 C29.066788,43.4496567 29.0855368,43.5371517 29.1076509,43.62032 C29.1244768,43.7049305 29.1364952,43.787618 29.1465908,43.8664596 C29.1489945,43.9462627 29.1576478,44.0217391 29.1538019,44.0943311 C29.1489945,44.1659616 29.1475523,44.2342269 29.1384182,44.297204 C29.1283227,44.3601811 29.1196694,44.4193123 29.1086123,44.4726747 C29.0956324,44.5265177 29.0807294,44.5741111 29.0682302,44.6178586 C29.0610191,44.6399727 29.0566924,44.6601638 29.0504428,44.6793935 C29.0437125,44.6981424 29.0360206,44.7149684 29.0283288,44.7322751 C29.0153488,44.764004 29.0033303,44.7914063 28.994677,44.8135204 C28.9749667,44.8577486 28.9653519,44.8813049 28.9653519,44.8813049 C28.9653519,44.8813049 28.9691978,44.8558256 28.9768896,44.8091937 C28.981697,44.7851566 28.9860237,44.7563121 28.9927541,44.7226602 C28.9961192,44.7048728 28.9980422,44.6870854 29.0014074,44.6678557 C29.0033303,44.648626 29.0052533,44.6274734 29.0066955,44.60584 C29.0105414,44.5616118 29.0158296,44.5140184 29.0191947,44.4611369 C29.0177525,44.4082553 29.018714,44.3520085 29.0191947,44.2919158 C29.0182333,44.2318232 29.0090992,44.1678845 29.0033303,44.1010615 C28.9961192,44.0342384 28.9797741,43.9659731 28.9691978,43.8938619 C28.9494875,43.8231929 28.9312194,43.7501202 28.9062209,43.6756053 C28.8768958,43.6039748 28.8552625,43.5260946 28.8153611,43.4530219 C28.749019,43.3020691 28.6499866,43.1583274 28.5408587,43.0193931 C28.4293271,42.8799781 28.290874,42.7583505 28.1423254,42.6487414 C28.1033855,42.6232621 28.0649263,42.5977828 28.0255057,42.5727843 C28.0067568,42.5593235 27.9865657,42.5492279 27.9673361,42.5386516 L27.9077244,42.5078842 L27.8481127,42.4756745 C27.8293638,42.4646174 27.8024424,42.4559641 27.7798476,42.44683 L27.6466827,42.3920255 C27.4678475,42.3338557 27.2827627,42.2939542 27.0981587,42.2814549 C26.9135546,42.2752053 26.729912,42.2843394 26.5558842,42.3227987 C26.3832986,42.363181 26.2160012,42.4126973 26.0698563,42.489616 C25.9929379,42.5223064 25.9289996,42.5694191 25.8602538,42.6078784 C25.7943924,42.6497029 25.7333385,42.6953733 25.6746882,42.7386401 C25.6213261,42.7881565 25.566041,42.8319039 25.5184478,42.8790166 C25.4727775,42.9275715 25.425665,42.971319 25.3881673,43.0179509 C25.3506696,43.0650636 25.3146141,43.1097725 25.2814431,43.1506355 C25.252118,43.1929408 25.2256773,43.2333231 25.2011596,43.2703402 C25.1901025,43.2881276 25.1776033,43.305915 25.167027,43.3217795 C25.1569315,43.3386055 25.1477974,43.3554314 25.1391441,43.3708151 C25.122799,43.4011019 25.1093383,43.4270619 25.0973198,43.4477338 C25.0742443,43.490039 25.0607835,43.5121531 25.0607835,43.5121531 C25.0607835,43.5121531 25.0684754,43.4881161 25.0809746,43.4410034 C25.087705,43.4184086 25.0953968,43.3900448 25.1050116,43.3563929 C25.109819,43.3400477 25.1141457,43.3217795 25.1203953,43.3030306 C25.1280871,43.2842817 25.1362597,43.2645713 25.1453937,43.2434186 C25.1631811,43.2020749 25.18193,43.1544815 25.2045247,43.1040036 C25.2300039,43.0554487 25.2588483,43.0040094 25.2915386,42.9482434 C25.3237482,42.8929581 25.3655726,42.8395958 25.4064354,42.7799838 C25.4482598,42.7208526 25.5021026,42.6674903 25.5545033,42.6073976 C25.6112306,42.5516316 25.6727653,42.4939427 25.7381459,42.4391381 C25.8073724,42.3876988 25.8775604,42.3309713 25.9578439,42.2867431 C26.1131229,42.1867488 26.295804,42.1107917 26.4905036,42.0540642 C26.5395391,42.0420457 26.589536,42.0295464 26.6400137,42.0175278 C26.6900106,42.0074323 26.7419305,42.0031056 26.7943311,41.994933 L26.872211,41.9848374 L26.951533,41.981953 C27.0044144,41.9809915 27.0577765,41.9766648 27.1116194,41.9790685 C27.2346887,41.9829144 27.3577581,42.0007019 27.479866,42.0261812 C27.4904423,42.0107975 27.5154408,41.9761841 27.5529385,41.9218603 C27.5784177,41.8862854 27.6106272,41.8415764 27.6476442,41.7886949 C27.6663931,41.7627348 27.6861034,41.7348518 27.7086982,41.7050459 C27.7264855,41.6733169 27.7466766,41.6401458 27.7678291,41.6045709 C27.8091728,41.5334211 27.8562853,41.4565025 27.9053207,41.3714113 C27.9452221,41.2810319 27.9928154,41.1868065 28.0413701,41.0853701 C28.0889633,40.9839336 28.1240573,40.8680749 28.1692468,40.7517355 C28.2105905,40.6344346 28.2399156,40.5055958 28.277894,40.3753149 C28.303854,40.241188 28.3326984,40.1022537 28.3504857,39.9575505 C28.3586583,39.8118859 28.3855797,39.6638175 28.3769264,39.508538 C28.3879834,39.2008634 28.337025,38.8787666 28.2663563,38.5557083 C28.1908801,38.2316886 28.056273,37.9158414 27.8961867,37.6100898 C27.8514779,37.5360556 27.8067691,37.4620214 27.760618,37.3875065 C27.7399462,37.3490472 27.7149478,37.3153953 27.6889878,37.2822241 L27.6139924,37.1822299 L27.5394778,37.0807934 C27.5173637,37.0466608 27.4784238,37.0106052 27.4490987,36.9764725 L27.2678598,36.7764841 C27.0140292,36.5341903 26.7356809,36.3173759 26.434257,36.1467127 C26.1289873,35.986145 25.8121798,35.8529796 25.4891227,35.7770225 C25.1655848,35.7058727 24.8434892,35.6539527 24.5343735,35.6659712 C24.380056,35.6582793 24.2319882,35.6852009 24.086324,35.6933735 C23.9416214,35.7106802 23.8017261,35.7390439 23.6685612,35.7650039 C23.5378,35.8034633 23.4094425,35.8327885 23.292142,35.8741323 C23.1758029,35.919322 23.0594639,35.9548968 22.9585086,36.0015288 C22.8565917,36.0505644 22.7623667,36.0976771 22.6724684,36.1390208 C22.5883389,36.1861335 22.5119013,36.2337269 22.4417133,36.2750707 C22.4056578,36.2957426 22.3720061,36.315453 22.340758,36.3346826 C22.3099906,36.3553545 22.2821077,36.3765071 22.2551863,36.395256 C22.2032664,36.4327539 22.1580769,36.4649636 22.1220214,36.4909236 C22.0484682,36.5423629 22.0090475,36.5697652 22.0090475,36.5697652 C22.0090475,36.5697652 22.0412571,36.5341903 22.0994266,36.4664058 C22.1287517,36.4327539 22.1657687,36.3914101 22.2080738,36.3428552 C22.2297071,36.3188181 22.2518211,36.2918966 22.2787425,36.2654558 C22.3061447,36.2399765 22.3354698,36.2140165 22.3676794,36.1856528 C22.431137,36.129406 22.5018058,36.0654674 22.5801664,35.9981636 C22.6628536,35.9375901 22.7551556,35.874613 22.8527458,35.8053862 C22.915242,35.763081 22.98543,35.7246217 23.0570602,35.6852009 C23.0469647,35.6102052 23.0325425,35.5352095 23.0161973,35.4602138 C22.9772574,35.2938773 22.9085116,35.1328289 22.8267859,34.9770686 C22.8046718,34.9386093 22.7820771,34.9011115 22.7575593,34.8626522 C22.7479446,34.8434225 22.7344838,34.8261158 22.7210231,34.8097706 L22.7181387,34.8054439 C22.6825639,34.7592927 22.6489122,34.7126608 22.6114145,34.6679519 C22.6070878,34.6626637 22.6032419,34.658337 22.5989152,34.6535296 L22.5066132,34.5511317 C22.3768135,34.4271004 22.2345145,34.3170106 22.0811585,34.2299963 C21.9455899,34.1583659 21.8056946,34.0992347 21.6638764,34.0588524 C21.6600305,34.1852874 21.6523386,34.3102802 21.6374357,34.4323885 C21.6258979,34.6535296 21.5749395,34.8636136 21.5364803,35.0664866 C21.4860027,35.2679172 21.4230258,35.4582909 21.3638948,35.6385689 C21.2860149,35.8140396 21.2264032,35.9866258 21.1446774,36.1390208 C21.0576635,36.2894929 20.9845911,36.4356383 20.8990194,36.5630348 C20.8100826,36.6889891 20.7302798,36.8067708 20.6519192,36.9125339 C20.5668282,37.0130089 20.4851025,37.101946 20.4125108,37.1827106 C20.376936,37.2235736 20.3423228,37.2615522 20.310594,37.2976078 C20.2759807,37.3312597 20.2413674,37.360585 20.2096386,37.388468 C20.2081964,37.3903909 20.2062734,37.3913524 20.2048312,37.3932754 C20.4355863,37.5350941 20.6509577,37.7057574 20.849984,37.894208 L21.0206466,38.0841009 C21.0470873,38.1153491 21.0740087,38.1408284 21.1014109,38.1783263 L21.1812137,38.2864931 C21.2312106,38.3595658 21.2927453,38.4297541 21.3316852,38.5057112 C21.3739903,38.5807069 21.4182184,38.6552218 21.4605235,38.729256 C21.5009056,38.8047324 21.531673,38.8840548 21.5677284,38.9614541 L21.6177254,39.0777936 L21.6576268,39.1970175 C21.6816638,39.2768206 21.7119504,39.3547007 21.7316607,39.4345038 C21.7480058,39.5152684 21.7657932,39.5955522 21.7826191,39.6748745 C21.8355005,39.9931254 21.8523264,40.3080111 21.8167516,40.6007826 C21.8085791,40.7469281 21.7739658,40.8868238 21.7489673,41.0223929 C21.7157963,41.1555583 21.6739719,41.2819933 21.6340705,41.4021787 C21.5826314,41.5185182 21.5432107,41.6329346 21.4884064,41.7348518 C21.4307176,41.8343653 21.3826436,41.9319558 21.3259163,42.0165664 C21.2667853,42.1002154 21.213904,42.1780955 21.1615033,42.2487645 C21.1057375,42.3151068 21.0509332,42.374238 21.0023785,42.4285618 C20.9788222,42.4550026 20.9562275,42.4804819 20.9341134,42.504519 C20.9115187,42.5275946 20.8884432,42.5463435 20.8677713,42.5650924 C20.8538299,42.5771109 20.8437344,42.5857643 20.8312351,42.5968213 C20.859118,42.6049939 20.8855587,42.6136473 20.9134416,42.6223006 L20.968246,42.6400881 L21.0225695,42.6636444 C21.0581443,42.6799896 21.0951612,42.6944119 21.1297745,42.7131608 C21.2720735,42.7867142 21.4009117,42.8862277 21.518693,42.9967983 L21.598015,43.0852547 C21.6100335,43.1001577 21.6225328,43.1112147 21.6355127,43.1290022 L21.672049,43.1789993 C21.6951245,43.2131319 21.7244496,43.2458224 21.7427177,43.2813972 C21.7619473,43.3160106 21.7826191,43.3511047 21.8023294,43.3852374 C21.8205975,43.4198508 21.8355005,43.4568679 21.8518456,43.4924427 L21.8749211,43.5467665 L21.8931893,43.6025325 C21.9056885,43.6390689 21.9186685,43.6756053 21.9282833,43.7121416 C21.9359751,43.7501202 21.9436669,43.787618 21.9513588,43.8241544 C21.9763572,43.9722228 21.9845298,44.1178874 21.9672232,44.254418 C21.963858,44.3226833 21.9475128,44.3875834 21.9364558,44.4505605 C21.9205914,44.5125762 21.9013618,44.5707459 21.8830937,44.6269927 C21.8590567,44.6808357 21.8412694,44.7337173 21.8153094,44.7808299 C21.788388,44.8279426 21.7657932,44.8731323 21.7393525,44.9120724 C21.7119504,44.9510124 21.6874326,44.9875488 21.6638764,45.0192777 C21.6374357,45.0505259 21.6119565,45.0784089 21.5893617,45.1034075 C21.5783047,45.1159068 21.5672477,45.1274446 21.5576329,45.1385016 C21.5470566,45.1495587 21.5364803,45.1577313 21.5263848,45.1668654 C21.5071552,45.1841721 21.4908101,45.1985943 21.4773494,45.2106128 C21.4504279,45.2336884 21.4360057,45.2461877 21.4360057,45.2461877 C21.4360057,45.2461877 21.4470628,45.230804 21.4677346,45.2014788 C21.4783108,45.1870565 21.4903293,45.1697498 21.505713,45.1485972 C21.5129241,45.1380209 21.5206159,45.1274446 21.52975,45.1149453 C21.5364803,45.1029268 21.5446529,45.0899467 21.5528255,45.0755245 C21.5691707,45.0476415 21.5879195,45.0163933 21.6071491,44.9832221 C21.6234942,44.9471665 21.6422431,44.9096687 21.6619534,44.8697671 C21.6807023,44.8298656 21.6936823,44.7837144 21.7119504,44.7370825 C21.7282955,44.6909313 21.740314,44.639492 21.7556977,44.5880526 C21.7657932,44.5346903 21.7763695,44.479405 21.7840613,44.4221968 C21.7869458,44.3645078 21.7980028,44.3058574 21.7946376,44.2448032 C21.7989643,44.1222141 21.7792539,43.9948176 21.7508903,43.8664596 C21.7206037,43.7376209 21.6667608,43.6126281 21.6042647,43.491962 C21.5859965,43.4616753 21.5686899,43.4323501 21.5504218,43.4035056 C21.5422492,43.3886026 21.531673,43.3741803 21.5215774,43.3616811 L21.4917716,43.3217795 L21.4624464,43.2813972 C21.4533124,43.2679365 21.4388902,43.2535142 21.4263909,43.2400535 L21.35428,43.1607311 C21.2538054,43.0645828 21.143716,42.9790108 21.0240118,42.9107455 C20.9028653,42.8477684 20.7773923,42.7944061 20.6490347,42.7641194 C20.521158,42.7362364 20.3932812,42.7155645 20.2702118,42.7198912 C20.2096386,42.7170067 20.1505076,42.7285445 20.0928188,42.7309482 C20.0351301,42.7386401 19.9803257,42.7492164 19.9269636,42.759312 C19.8755245,42.7746957 19.8240853,42.7867142 19.778415,42.8030594 C19.7317833,42.8208469 19.6856323,42.8343076 19.6457309,42.8530566 C19.6053487,42.872767 19.567851,42.8915159 19.532757,42.9078611 C19.4986245,42.92661 19.4683379,42.9458397 19.440455,42.9621849 C19.427475,42.9698767 19.4154565,42.9770879 19.403438,42.9838182 C19.5664088,43.0761206 19.7173611,43.19246 19.8558141,43.322741 L19.9601347,43.4390804 C19.9764798,43.4587908 19.992825,43.4732131 20.0091701,43.4962887 L20.0577248,43.562631 C20.0880114,43.60734 20.1255091,43.650126 20.1500269,43.6962771 C20.1755061,43.7424283 20.2024275,43.787618 20.2288682,43.8332885 C20.2529052,43.8784782 20.2721348,43.9279945 20.2942488,43.9741457 L20.3245354,44.0457762 L20.3480917,44.1178874 C20.3634753,44.1674038 20.3827049,44.2145165 20.3942427,44.2635521 C20.4043382,44.3125877 20.4149145,44.3611426 20.42501,44.4101783 C20.4577003,44.6043978 20.4677959,44.7966944 20.4452011,44.9755303 C20.4408744,45.0649482 20.4206834,45.1505202 20.4043382,45.232727 C20.3841471,45.314453 20.3591487,45.3913716 20.3351117,45.4644444 C20.3029021,45.5355941 20.2788651,45.6053016 20.2452133,45.6673173 C20.2101193,45.7283714 20.1807942,45.7879834 20.146181,45.8394227 C20.1101255,45.8908621 20.0779159,45.9384555 20.0452256,45.9807607 C20.0115738,46.0221045 19.9784028,46.0576794 19.9490777,46.0913313 C19.933694,46.1076765 19.920714,46.1225795 19.9067726,46.1374825 C19.8937926,46.151424 19.8798511,46.1629617 19.8668712,46.1744995 C19.8413919,46.1970944 19.8197587,46.2158433 19.8019713,46.2317078 C19.7659158,46.2624752 19.7476477,46.2783397 19.7476477,46.2783397 C19.7476477,46.2783397 19.7620699,46.2581486 19.7889913,46.2196892 C19.8029328,46.2014211 19.8187972,46.1778647 19.8389883,46.1509432 C19.848603,46.136521 19.8586986,46.1225795 19.8697556,46.106715 C19.8798511,46.0908505 19.8899467,46.0730631 19.9005229,46.0543142 C19.9231177,46.0172971 19.9471547,45.9769148 19.9726339,45.9331673 C19.9933057,45.8860546 20.0183042,45.8365383 20.0437834,45.7836567 C20.0687819,45.7312559 20.0865692,45.6711632 20.1101255,45.6105898 C20.1317588,45.5490549 20.1471424,45.4812703 20.1668528,45.4139665 C20.1807942,45.3437782 20.1952164,45.271667 20.2043505,45.1957099 C20.2081964,45.1202334 20.2230993,45.0433148 20.2187727,44.9620695 C20.2240608,44.8015018 20.1976201,44.6342038 20.1610839,44.4654635 C20.1216632,44.2962425 20.0514752,44.1318289 19.9678265,43.9722228 C19.9442703,43.9337634 19.9216755,43.8953041 19.8971578,43.8568448 C19.8861007,43.8371344 19.8731208,43.8188662 19.8596601,43.8020403 L19.8207201,43.7501202 L19.782261,43.6962771 C19.7702425,43.6784897 19.7500514,43.6602215 19.7346677,43.6419533 L19.639962,43.5385939 C19.5082393,43.4116782 19.3630559,43.2991847 19.2053732,43.2102475 C19.0462484,43.1265985 18.8823161,43.0568909 18.7135765,43.0174701 C18.5443561,42.980453 18.3765779,42.9530508 18.2164916,42.9593004 C18.1352465,42.9554545 18.0583282,42.9698767 17.982852,42.9732419 C17.9068951,42.9828568 17.8338227,42.9977597 17.7645962,43.0107398 C17.6968119,43.0304502 17.6295083,43.0467954 17.5684544,43.0684287 C17.5074004,43.0915043 17.4473079,43.1102533 17.3944266,43.1347711 C17.3415452,43.1597696 17.2925097,43.1847682 17.2453972,43.2064016 C17.2011692,43.2304386 17.1617485,43.2549564 17.1247316,43.2765898 C17.1069442,43.2881276 17.0886761,43.2982232 17.0723309,43.307838 C17.0569472,43.3184143 17.0415636,43.3299521 17.0285836,43.3390862 C17.00022,43.3592773 16.9776252,43.3761033 16.9588763,43.3895641 C16.9204172,43.4164856 16.8997453,43.4309078 16.8997453,43.4309078 C16.8997453,43.4309078 16.9165712,43.4116782 16.9473386,43.3761033 C16.9622415,43.3592773 16.9809904,43.337644 17.0031044,43.3121647 C17.0156036,43.2996654 17.0266606,43.2857239 17.0401214,43.2717824 C17.0540628,43.2588024 17.0699272,43.2448609 17.0867531,43.2304386 C17.1199242,43.2011134 17.1564604,43.1679422 17.197804,43.1323674 C17.2405898,43.1011192 17.2881831,43.0684287 17.3396222,43.0323731 C17.3910614,42.9977597 17.4501924,42.9689153 17.5112463,42.9333404 C17.5732618,42.8996885 17.642969,42.8756514 17.7141185,42.8444032 C17.7871909,42.8203661 17.86459,42.7948868 17.9463158,42.7742149 C18.0285223,42.7583505 18.114094,42.7376786 18.2039923,42.7328712 C18.381866,42.7112378 18.5741619,42.7218141 18.7679001,42.7535431 C18.8174163,42.7641194 18.865971,42.7742149 18.9150064,42.7857527 C18.9635611,42.7968098 19.0111544,42.8155587 19.0606706,42.829981 L19.1332623,42.854018 L19.2034503,42.8852662 C19.2510435,42.9068996 19.2995982,42.9256485 19.3452685,42.9501663 C19.3539218,42.954493 19.3620944,42.9602619 19.3697862,42.9645886 C19.3721899,42.9621849 19.3741129,42.9602619 19.3760359,42.9583389 C19.3866121,42.9482434 19.3991114,42.9376671 19.4116106,42.92661 C19.4366091,42.9044959 19.464492,42.8785359 19.4957401,42.8520951 C19.5284304,42.828058 19.5644858,42.8030594 19.6034258,42.7761379 C19.6428464,42.7496971 19.688036,42.727583 19.7346677,42.7001808 C19.782261,42.6747015 19.8346616,42.6564333 19.8885044,42.6323962 C19.9442703,42.614128 20.003882,42.5948984 20.0649359,42.5795146 C20.1279128,42.5679768 20.1932935,42.5516316 20.2615585,42.5482664 C20.3971271,42.5309598 20.5427913,42.5396131 20.6908591,42.5641309 C20.7211457,42.5694191 20.7504708,42.5766302 20.7812382,42.5828798 C20.7932567,42.5655731 20.8062367,42.5468242 20.8221011,42.5261523 C20.8384462,42.5035575 20.8538299,42.4795204 20.8735402,42.4540411 C20.8884432,42.4276003 20.9057498,42.3987558 20.9235372,42.3684691 C20.9595926,42.3078957 20.9999748,42.2420341 21.0413184,42.1689614 C21.0759317,42.0920428 21.1158331,42.0117589 21.1576574,41.9257062 C21.1980396,41.8382113 21.2283262,41.7396592 21.2667853,41.6411072 C21.3018793,41.5401515 21.3273586,41.429581 21.3595681,41.3190104 C21.3816821,41.204594 21.4061999,41.0863316 21.4206221,40.9623003 C21.4273524,40.8382689 21.4504279,40.7113532 21.4451398,40.57963 C21.4537931,40.3161837 21.4100458,40.0411995 21.3499533,39.7657347 C21.2855342,39.4888276 21.1706374,39.2196123 21.0336266,38.9585697 C20.9951674,38.8955926 20.9571889,38.8316539 20.9177683,38.7686768 C20.9004616,38.7359864 20.8783476,38.7066612 20.8562336,38.6787781 L20.7922952,38.5932062 L20.7283568,38.5057112 C20.7105694,38.4773475 20.6769177,38.44658 20.6519192,38.4172548 L20.4966402,38.2465915 C20.2803074,38.0398727 20.0433026,37.855268 19.7851454,37.7091226 C19.5245844,37.572592 19.2544087,37.4581755 18.9784641,37.3932754 C18.701558,37.3331827 18.4275363,37.287993 18.1636102,37.2985693 C18.0318875,37.2918389 17.9054529,37.3153953 17.7809413,37.3216449 C17.6573912,37.3375094 17.5381677,37.3615465 17.4242324,37.3826991 C17.3131815,37.4158702 17.2030921,37.4413495 17.1026175,37.4769244 C17.0035851,37.514903 16.9045527,37.5451897 16.8185003,37.5850912 C16.7314864,37.6269158 16.6507221,37.667298 16.5742845,37.7019114 C16.5435172,37.7201796 16.5185187,37.7350826 16.4896743,37.7519085 C16.5228454,37.8543065 16.5598623,37.9557429 16.5848608,38.0581409 C16.6079363,38.1725574 16.6329348,38.2855316 16.6574525,38.3980251 C16.7319672,38.8499221 16.7569656,39.2955695 16.7050457,39.7099687 C16.6944695,39.9181297 16.645434,40.1161952 16.61034,40.3080111 C16.562266,40.4969425 16.503135,40.6757783 16.4473692,40.8459608 C16.3747775,41.0108551 16.318531,41.1733458 16.2406511,41.3170875 C16.1584446,41.4589062 16.0901796,41.5963983 16.009896,41.7161029 C15.9267281,41.8348461 15.8512519,41.9458974 15.777218,42.0454108 C15.6974152,42.1401169 15.6195354,42.2242467 15.5517511,42.3002038 C15.5176185,42.3386632 15.4858897,42.374238 15.4560838,42.4083707 C15.4233935,42.4400996 15.3907032,42.4675019 15.3608974,42.4934619 C15.3012856,42.5468242 15.2517694,42.5910524 15.2104258,42.6271081 C15.1287001,42.6972963 15.0849527,42.7357556 15.0849527,42.7357556 C15.0849527,42.7357556 15.1181238,42.6881622 15.1801392,42.599225 C15.211868,42.5559583 15.2503272,42.5021153 15.2955168,42.4386574 C15.3181115,42.4064477 15.3421485,42.3732765 15.3685892,42.3367402 C15.3907032,42.2992424 15.415221,42.2578986 15.4397387,42.2146318 C15.4911778,42.1290599 15.5479051,42.0362768 15.6070361,41.9329173 C15.6560716,41.8242698 15.7127989,41.710334 15.7724106,41.5877449 C15.8286572,41.4646751 15.871443,41.3247793 15.9267281,41.1844028 C15.9762443,41.0421033 16.0122997,40.8863431 16.0584508,40.7281791 C16.0896988,40.5661693 16.1233506,40.3979097 16.1449839,40.2234006 C16.1545987,40.0469684 16.187289,39.8676519 16.178155,39.6806434 C16.1916157,39.307588 16.1296002,38.9177067 16.0440286,38.5273446 C15.9531688,38.1355403 15.790198,37.75287 15.5964599,37.3826991 C15.5411748,37.2937619 15.4878127,37.2038632 15.4320469,37.1144453 C15.4065676,37.0678134 15.3767618,37.0269504 15.345033,36.9865681 L15.2546539,36.8649405 L15.1647555,36.7423514 C15.1378341,36.7010076 15.0912024,36.6587024 15.0546661,36.6159164 L14.8354488,36.3750649 C14.5287368,36.0813318 14.192219,35.8193277 13.8268568,35.6130896 C13.4576486,35.4188701 13.0749798,35.2578217 12.6831769,35.1650386 C12.2918547,35.0799473 11.9024555,35.0169702 11.5298822,35.0309117 C11.3423937,35.0212969 11.1635585,35.0549488 10.9876078,35.0645636 C10.811657,35.0857162 10.6433981,35.1198489 10.4818695,35.1510971 C10.3237061,35.1982097 10.1679465,35.2333038 10.0261282,35.283301 C9.88623296,35.3381055 9.74537621,35.37993 9.62278757,35.437619 C9.49971819,35.4967502 9.38530212,35.5539584 9.27713568,35.6034748 C9.17473811,35.660683 9.08195533,35.718372 8.9968644,35.7678884 C8.95504004,35.7933677 8.91369642,35.8178855 8.87523724,35.8399996 C8.83822028,35.8649982 8.80504923,35.8904775 8.77235893,35.9130723 C8.70842054,35.9587428 8.65457769,35.9981636 8.61083037,36.0298925 C8.52237425,36.0919082 8.47478102,36.1245986 8.47478102,36.1245986 C8.47478102,36.1245986 8.51227872,36.0813318 8.58390894,35.9996058 C8.61948368,35.9592235 8.66419248,35.9087457 8.71563164,35.8505759 C8.74255306,35.8212507 8.76803227,35.7885603 8.80072257,35.7563506 C8.83341288,35.7260639 8.86946836,35.6938542 8.90840828,35.6597216 C8.98532664,35.5924177 9.07041758,35.5145376 9.16560405,35.4332923 C9.26511718,35.3602196 9.37616807,35.2837817 9.49443005,35.2006134 C9.61413425,35.1203296 9.75210656,35.052545 9.89344405,34.9703383 C10.0371852,34.8919774 10.200156,34.8366921 10.364569,34.7641002 C10.5342702,34.7083341 10.7135861,34.6487222 10.9034783,34.6016095 C11.0313551,34.5770917 11.16452,34.5482472 11.3000886,34.5275753 C11.2909545,34.4785397 11.2823012,34.4285426 11.2707635,34.3785455 C11.2294199,34.1982674 11.153463,34.0218353 11.0650069,33.8521335 C11.0395276,33.8107898 11.0150099,33.769446 10.9900115,33.728583 C10.9775122,33.7069496 10.9635708,33.6882007 10.9501101,33.6694518 L10.907805,33.6136858 L10.8664613,33.5569583 C10.8534814,33.5377286 10.8323288,33.5180182 10.8159837,33.4987885 L10.7145476,33.3877372 C10.5736908,33.2526489 10.4184119,33.1324635 10.2506337,33.036796 C10.0804518,32.9478588 9.90498181,32.8738246 9.7247044,32.8315193 C9.54442699,32.7916178 9.36559179,32.7627733 9.19300622,32.7695037 C9.1069538,32.765177 9.02522804,32.78008 8.94350228,32.7848874 C8.862738,32.7945022 8.7853389,32.8103667 8.7103435,32.8243082 C8.63823253,32.8459416 8.56660231,32.8622868 8.50170244,32.8853624 C8.43632183,32.9103609 8.37190271,32.9300713 8.31565615,32.9565121 C8.25844812,32.9834337 8.20604749,33.0103552 8.15653129,33.03295 C8.10893806,33.0589101 8.06615222,33.0853508 8.0272123,33.1084264 C8.00798271,33.1199642 7.98827238,33.131502 7.97144648,33.1415976 C7.95462059,33.1531354 7.93875618,33.1651539 7.92433399,33.1752495 C7.89981626,33.1930369 7.88058667,33.2074592 7.86231856,33.2204392 C7.87289483,33.2555333 7.88539407,33.2891852 7.89452812,33.3237986 C7.90221996,33.3612965 7.90991179,33.3987943 7.91808437,33.4358114 C7.9426021,33.583399 7.95077467,33.7295445 7.93394878,33.8655943 C7.93010286,33.9338596 7.91423845,33.9987597 7.90221996,34.0617368 C7.88683629,34.1232717 7.8676067,34.1819222 7.84933858,34.2376882 C7.8253016,34.292012 7.80703349,34.3453743 7.78155428,34.392487 C7.75463285,34.4391189 7.73203808,34.4838279 7.7055974,34.5232487 C7.67867597,34.561708 7.6536775,34.5987251 7.62964051,34.6314155 C7.60319983,34.662183 7.57772062,34.6895852 7.55608733,34.7150645 C7.54503032,34.7275638 7.5339733,34.7391016 7.52435851,34.7501586 C7.51330149,34.7602542 7.50320596,34.769869 7.49311042,34.7780417 C7.47388083,34.7953483 7.45753568,34.8102513 7.44407497,34.8213084 C7.4166728,34.8448647 7.40273135,34.857364 7.40273135,34.857364 C7.40273135,34.857364 7.41378836,34.8419803 7.43349869,34.812655 C7.44407497,34.7982328 7.4565742,34.7809261 7.47195787,34.7597735 C7.47916897,34.7491972 7.4868608,34.7391016 7.49551412,34.7266023 C7.50320596,34.7145838 7.51089779,34.7006423 7.51907037,34.68622 C7.53589626,34.6588178 7.55464511,34.6280503 7.5738747,34.5943984 C7.58973911,34.5588235 7.60800722,34.520845 7.62819829,34.4804627 C7.64598567,34.4405611 7.66040786,34.3953714 7.67867597,34.3492202 C7.69454038,34.3021076 7.70655888,34.251149 7.72194255,34.1992289 C7.73203808,34.1463473 7.7430951,34.0910621 7.75030619,34.0338538 C7.75319063,33.9761648 7.76472839,33.9175144 7.76136321,33.8559795 C7.76520913,33.7343519 7.7454988,33.6059939 7.71713515,33.4776359 C7.68684855,33.3492779 7.63348643,33.2238044 7.57050952,33.1026575 C7.55224141,33.0738131 7.53445404,33.0440071 7.51618593,33.0146818 C7.50849409,32.9992981 7.49839856,32.9858374 7.48782228,32.9728573 L7.45849716,32.9334365 L7.42869129,32.8930543 C7.42003798,32.8791127 7.40465431,32.8646905 7.39311655,32.8517105 L7.32100559,32.7728689 C7.22053098,32.6757591 7.10948009,32.5901871 6.99073737,32.5219218 C6.86911021,32.4589447 6.74363713,32.4055824 6.61479888,32.3757764 C6.48740284,32.3478934 6.3600068,32.3267408 6.23693742,32.3315482 C6.17588347,32.3286637 6.11723322,32.33924 6.05954445,32.3426052 C6.00185568,32.3498164 5.94608987,32.3608734 5.89368923,32.3714497 C5.84225008,32.385872 5.79081092,32.3974098 5.74369843,32.4142357 C5.69850889,32.4325039 5.65235787,32.4459647 5.61197573,32.4651943 C5.57159359,32.484424 5.53457663,32.5031729 5.49852115,32.5190374 C5.46486937,32.538267 5.43458276,32.5565352 5.40669985,32.5738419 C5.39323914,32.5815338 5.37977843,32.5897064 5.36631771,32.5964367 C5.35477996,32.6046094 5.34324221,32.6132627 5.33314667,32.6204738 C5.31247486,32.6353768 5.29516823,32.6488376 5.28074604,32.6589331 C5.25094017,32.6791243 5.2355565,32.6901813 5.2355565,32.6901813 C5.2355565,32.6901813 5.24805573,32.6757591 5.27113124,32.6488376 C5.282669,32.6353768 5.29757193,32.6195123 5.31439782,32.6002827 C5.3225704,32.5906678 5.33218519,32.5800915 5.34228073,32.5695152 C5.35333774,32.5594197 5.36535623,32.5493241 5.37785547,32.5377863 C5.40285394,32.5151914 5.43121758,32.4901929 5.46198493,32.4637521 C5.49515597,32.4392343 5.53073071,32.4147165 5.56967063,32.3877949 C5.60909129,32.3608734 5.65476157,32.3387593 5.70043185,32.3118378 C5.74802509,32.2863585 5.8013872,32.2680903 5.85523005,32.2440532 C5.91099586,32.2262658 5.96964612,32.2065554 6.03166154,32.1911717 C6.09415771,32.1786724 6.15953832,32.1632887 6.22732263,32.1594427 C6.36337198,32.1426168 6.50903613,32.1512701 6.65758471,32.1753072 C6.69460168,32.1829991 6.73161864,32.1911717 6.76911634,32.1988635 C6.80565256,32.2079976 6.84266952,32.2219391 6.88016722,32.2334769 L6.93449082,32.2517451 L6.98881441,32.2748207 C7.02438915,32.2911659 7.06188685,32.3060689 7.09650012,32.3248178 C7.23783761,32.3978905 7.3671566,32.4969233 7.48493785,32.6084553 L7.56474065,32.696431 C7.57675914,32.711334 7.58829689,32.7228718 7.60223835,32.7396977 L7.63877457,32.7906563 C7.66185008,32.8243082 7.69069446,32.8569986 7.70896257,32.8930543 C7.72819216,32.9276676 7.74838323,32.9618003 7.7685743,32.9959329 C7.78636168,33.0319885 7.80174535,33.0685249 7.81857124,33.1040998 L7.84164675,33.1584236 L7.85366524,33.1959214 C7.8676067,33.1810184 7.88058667,33.1661154 7.8978933,33.146405 C7.90991179,33.133425 7.92241103,33.1180413 7.93683322,33.1031383 C7.95221689,33.0891968 7.96904279,33.0742938 7.98634942,33.0589101 C8.02192416,33.0276619 8.06182556,32.9916063 8.10557288,32.9545892 C8.15076242,32.9204565 8.20220157,32.8853624 8.25652516,32.8473838 C8.31181024,32.8103667 8.37526788,32.7791185 8.44016775,32.7416207 C8.5060291,32.7055651 8.5810245,32.679605 8.65698139,32.6469146 C8.73486123,32.6204738 8.81802921,32.5935523 8.90552384,32.5719189 C8.99253774,32.5546122 9.08435903,32.5329789 9.18002625,32.5276907 C9.37039919,32.5041344 9.57519433,32.5151914 9.78335465,32.5502856 C9.8347938,32.5608619 9.88767518,32.5719189 9.94007581,32.582976 C9.99151496,32.5954753 10.0429541,32.6156664 10.094874,32.6315309 L10.1727539,32.6570102 L10.2487107,32.6901813 C10.2987077,32.7127762 10.3506276,32.7334481 10.4001438,32.7594081 C10.5982085,32.8627675 10.7799282,33.0017018 10.9448219,33.1574621 L11.0563535,33.2814934 C11.0736602,33.3021653 11.0909668,33.3180297 11.1087542,33.3430283 L11.1611548,33.414178 C11.1938451,33.46081 11.2337465,33.5074419 11.2597065,33.5569583 C11.2871086,33.6055131 11.3154723,33.6545488 11.3433552,33.7021422 C11.3693151,33.7516586 11.3899869,33.8035786 11.4130624,33.8535758 L11.4462335,33.9295329 L11.471232,34.007413 C11.4885386,34.0598139 11.5077682,34.1107725 11.5197867,34.1622118 C11.5308437,34.2150934 11.5423814,34.2674942 11.5529577,34.3189335 C11.563534,34.3799877 11.5707451,34.4400804 11.5769947,34.5001731 C11.9697591,34.4607523 12.3880027,34.4833471 12.8115344,34.5540161 C12.924989,34.5780532 13.0370014,34.602571 13.1523789,34.6270888 C13.2653527,34.6544911 13.3759229,34.6967963 13.4898582,34.7314097 L13.6576364,34.786695 L13.8225301,34.8583255 C13.9321388,34.9083226 14.0446319,34.9530316 14.1513561,35.0102398 C14.5830604,35.2342653 14.9777478,35.536171 15.3363796,35.8750937 L15.5772303,36.144309 C15.6152087,36.1894987 15.6531871,36.2241121 15.6916463,36.2779551 L15.8051009,36.4308309 C15.8762504,36.5346711 15.963745,36.6346653 16.0180686,36.7413899 C16.0791226,36.8476338 16.1406573,36.9538777 16.2007497,37.05916 C16.2579578,37.1649232 16.3017051,37.2788589 16.353625,37.386545 L16.423813,37.5519201 L16.4473692,37.6240313 C16.4632336,37.6100898 16.4790981,37.596629 16.4959239,37.5822068 C16.5656312,37.5302867 16.6444725,37.4769244 16.7281212,37.4187547 C16.8122507,37.3615465 16.9093601,37.3134723 17.009354,37.2557833 C17.1112708,37.2009788 17.2252062,37.1610772 17.3415452,37.1101186 C17.4612494,37.0711786 17.5881647,37.0288733 17.7213296,36.9952214 C17.8564175,36.9697421 17.9967935,36.9360902 18.1429384,36.9274369 C18.4357089,36.891862 18.7496319,36.908688 19.0688432,36.9615695 C19.148646,36.9788762 19.2274873,36.9961829 19.3087323,37.0134896 C19.3885351,37.0322385 19.4668957,37.063006 19.5471792,37.0865623 L19.6664027,37.1259831 L19.782261,37.176461 C19.8596601,37.2120358 19.9389821,37.243284 20.0139775,37.2836663 C20.0529174,37.3033767 20.0894537,37.3269331 20.1269514,37.3490472 C20.1317588,37.3427975 20.1356047,37.3370286 20.1404121,37.3302983 C20.1644491,37.2961656 20.1894475,37.2605907 20.2182919,37.2216507 C20.2413674,37.1822299 20.2668466,37.1389631 20.2942488,37.092812 C20.3476109,37.0019518 20.4081841,36.9019576 20.471161,36.79331 C20.5235617,36.6774513 20.5836541,36.5567852 20.6456696,36.4260235 C20.7067235,36.2957426 20.7519131,36.1471934 20.8100826,35.9981636 C20.8634447,35.84673 20.9014231,35.6803934 20.9504586,35.5135761 C20.9836296,35.3414707 21.0201658,35.1631156 21.0422799,34.9775494 C21.0523754,34.7895794 21.0879502,34.5996866 21.0778546,34.4006596 C21.0922768,34.0045286 21.0264155,33.5906102 20.9355556,33.176211 C20.8384462,32.7594081 20.6653799,32.354143 20.4596233,31.9608965 C20.4019345,31.8657097 20.3447265,31.7710036 20.284634,31.675336 C20.2581933,31.6263004 20.2259838,31.5820722 20.1928127,31.5402477 L20.0966648,31.411409 L20.0014783,31.2806473 C19.9726339,31.2368998 19.9231177,31.1912294 19.8851393,31.1465204 L19.6514997,30.8902852 C19.3260389,30.5778032 18.9683685,30.3004154 18.5804116,30.0811972 C18.1886086,29.8749591 17.7819028,29.7033344 17.3665437,29.6057439 C16.9507038,29.5153645 16.5377483,29.4480607 16.1406573,29.4629637 C15.941631,29.4528681 15.7522195,29.488443 15.5642503,29.4985386 C15.378204,29.5211334 15.1988881,29.557189 15.0277447,29.5903602 C14.8599665,29.6398766 14.6950728,29.6773744 14.5441205,29.730256 C14.3955719,29.7889064 14.2455811,29.8336154 14.1157814,29.8946695 C13.9850202,29.9566852 13.863393,30.0182201 13.7484962,30.0706209 C13.6393683,30.1321558 13.5417781,30.1922485 13.451399,30.2456108 C13.4062095,30.2720516 13.3624622,30.2984924 13.3225608,30.3225295 C13.2821786,30.3484895 13.2470846,30.375411 13.2134328,30.3999289 C13.1451678,30.4484837 13.0879598,30.4903083 13.041328,30.5239602 C12.947103,30.5898217 12.8966253,30.6249159 12.8966253,30.6249159 C12.8966253,30.6249159 12.9370075,30.5782839 13.0124836,30.4917505 C13.0504621,30.4489645 13.0975746,30.3951214 13.1523789,30.3331058 C13.1802618,30.3023383 13.2081447,30.2677249 13.2422772,30.2326308 C13.2773712,30.2009019 13.3163112,30.16725 13.3576548,30.1307136 C13.4379383,30.0586024 13.5292789,29.9763956 13.6302342,29.8898621 C13.7355162,29.811982 13.8537782,29.7312174 13.979732,29.6432417 C14.1071281,29.5576698 14.2537537,29.4855585 14.4037445,29.3985443 C14.556139,29.315376 14.7287246,29.2562448 14.9032331,29.1793262 C15.0835105,29.120195 15.2748449,29.0572179 15.4753134,29.0077015 C15.6777049,28.9682807 15.8892304,28.9173221 16.1103707,28.9053035 C16.3050703,28.8817472 16.5084232,28.8750168 16.7151413,28.8798242 C16.6723554,28.7764648 16.6238007,28.6731054 16.5714001,28.5726304 C16.5411135,28.5231141 16.5108269,28.4731169 16.4800595,28.4236006 C16.4656373,28.3981213 16.4492922,28.3750457 16.4319856,28.3529316 L16.3819886,28.2856278 L16.3319917,28.2173625 C16.3175695,28.1947676 16.2916095,28.1707305 16.2714185,28.1471742 L16.1497913,28.0140088 C15.9796094,27.8505567 15.7930824,27.7058535 15.590691,27.591437 C15.3858958,27.4837509 15.1738896,27.394333 14.9561145,27.3428937 C14.7397816,27.295781 14.5234487,27.2611676 14.3167306,27.2683788 C14.2571189,27.265975 14.1999108,27.2703017 14.1427028,27.2760706 C14.1585672,27.4140434 14.1624131,27.5496125 14.1465487,27.677009 C14.1417413,27.7592158 14.1229925,27.8366152 14.109051,27.9106494 C14.0907829,27.9851643 14.0677074,28.0553526 14.0455934,28.1216949 C14.016749,28.1861143 13.994635,28.2495721 13.9643484,28.3062996 C13.9326195,28.3615849 13.9056981,28.4149472 13.87445,28.4620599 C13.841279,28.5077303 13.8124346,28.5514778 13.7835902,28.5899371 C13.7523421,28.6279157 13.7220555,28.6601254 13.6951341,28.6899314 C13.6821541,28.7053151 13.6701356,28.7192566 13.6576364,28.7322366 C13.6451372,28.7447359 13.6326379,28.7548315 13.6206194,28.7663693 C13.5975439,28.7870411 13.5773528,28.8038671 13.5619692,28.8178086 C13.5302404,28.8456916 13.5134145,28.8601138 13.5134145,28.8601138 C13.5134145,28.8601138 13.5259137,28.8413649 13.5499507,28.807713 C13.5624499,28.7899256 13.5773528,28.768773 13.5951402,28.7447359 C13.6042743,28.7312751 13.6138891,28.7182951 13.6239846,28.7043536 C13.6326379,28.6899314 13.6422527,28.6731054 13.6518675,28.6567602 C13.6715778,28.623589 13.6941726,28.5870527 13.7167674,28.5466704 C13.7355162,28.5043651 13.758111,28.4591754 13.7811865,28.4111013 C13.8037813,28.3635079 13.8206072,28.3087033 13.841279,28.2534181 C13.8609893,28.1981328 13.8754115,28.1370786 13.8941604,28.0760245 C13.9056981,28.0120858 13.9191588,27.946705 13.9273314,27.877959 C13.9316581,27.8092129 13.9436765,27.7395054 13.9403114,27.665952 C13.9455995,27.5202873 13.9210818,27.3678922 13.8879107,27.2150164 C13.852336,27.0621407 13.7888783,26.91263 13.7129215,26.7679269 C13.6912882,26.7333135 13.6701356,26.6977386 13.6480216,26.6631252 C13.6384068,26.644857 13.626869,26.6285118 13.6143698,26.6131281 L13.5787951,26.5655347 L13.5437011,26.5174605 C13.5340863,26.5015961 13.5148567,26.4847701 13.5009152,26.4679442 L13.4153435,26.3737188 C13.2956393,26.2588216 13.1639167,26.1569044 13.0206562,26.0761398 C12.9172972,26.0218161 12.8100922,25.9775878 12.701445,25.942013 C12.585106,26.0939273 12.4581907,26.2304579 12.3197376,26.3391054 C12.2423385,26.4083322 12.1558054,26.460733 12.0764833,26.5150568 C11.9923539,26.5650539 11.9096666,26.6068785 11.8298638,26.64678 C11.7466958,26.6794704 11.6692967,26.7164875 11.5918976,26.7395631 C11.5135371,26.7607157 11.4414261,26.7852336 11.3712381,26.7991751 C11.3000886,26.8111936 11.234708,26.8236929 11.1746155,26.832827 C11.1121193,26.8385959 11.0563535,26.8400381 11.0058759,26.8434033 C10.9799159,26.8448455 10.9563597,26.845807 10.9337649,26.8467685 C10.9106894,26.8467685 10.8900176,26.8453262 10.8703072,26.843884 C10.8563658,26.8429225 10.8481932,26.8424418 10.835694,26.8424418 C10.8453088,26.8722478 10.8558851,26.9030152 10.859731,26.9328212 C10.8669421,26.9693575 10.8736724,27.0068554 10.8804028,27.0424303 C10.8861717,27.0789666 10.8876139,27.1159837 10.8909791,27.1525201 L10.894825,27.2063631 L10.8933828,27.2616484 C10.8924213,27.297704 10.8933828,27.3342403 10.8900176,27.3693345 C10.8852102,27.4049093 10.8808835,27.4395227 10.8765569,27.4746169 C10.8520391,27.6121089 10.8145414,27.7428706 10.7582949,27.8572871 C10.7337772,27.9164183 10.6996446,27.9688191 10.6698388,28.0197777 C10.6371485,28.0692941 10.6020545,28.1154453 10.5693642,28.158712 C10.5313857,28.1990943 10.4986954,28.2404381 10.4616785,28.2731285 C10.4241808,28.3062996 10.3900482,28.3385093 10.3544735,28.3654308 C10.3188987,28.3904294 10.2862084,28.415428 10.2544796,28.4365806 C10.2222701,28.4558102 10.191022,28.4721555 10.1641005,28.4875392 C10.1496783,28.4947503 10.1376599,28.5024422 10.1256414,28.5082111 C10.1126614,28.5144607 10.1006429,28.5187874 10.0891051,28.5240755 C10.0674718,28.5327289 10.0477615,28.5404208 10.0328586,28.5466704 C10.0016105,28.5586889 9.98574609,28.5654193 9.98574609,28.5654193 C9.98574609,28.5654193 9.99968754,28.554843 10.026609,28.5360941 C10.0405504,28.52696 10.0559341,28.5144607 10.0761252,28.5014807 C10.0862207,28.4937888 10.0963162,28.4870584 10.1073732,28.4793666 C10.1174688,28.4702325 10.1285258,28.4610984 10.1400636,28.4514836 C10.1631391,28.4317732 10.189099,28.4101398 10.2165012,28.387545 C10.2424611,28.3606234 10.2698633,28.3332212 10.2991884,28.3043767 C10.3285135,28.27409 10.3544735,28.2385151 10.3847601,28.203421 C10.4136045,28.1673653 10.4390837,28.1265023 10.4688895,28.0856393 C10.493888,28.0418918 10.5208094,27.9971829 10.5443657,27.9481472 C10.5655182,27.8986309 10.5929204,27.8505567 10.6097463,27.7952714 C10.6506092,27.6890276 10.6722425,27.5707652 10.6871454,27.4496183 C10.7006061,27.3279907 10.6919528,27.2010749 10.6736847,27.0751207 C10.6664736,27.0438725 10.660224,27.0121435 10.6530129,26.9813761 C10.6506092,26.9655116 10.6458018,26.9501279 10.6409944,26.9352249 L10.6275337,26.8909967 L10.614073,26.8467685 C10.610227,26.8318655 10.6006122,26.8150395 10.5943626,26.7991751 L10.5559034,26.7073534 C10.4972532,26.5914947 10.4270652,26.4828471 10.342455,26.3857374 C10.2554411,26.2929543 10.1621776,26.2073823 10.0578571,26.1420014 C9.95401726,26.0780628 9.84873526,26.0198931 9.73960733,25.9862412 C9.68672596,25.9641271 9.63192162,25.9564352 9.58000173,25.9410515 C9.52760109,25.9295137 9.47520046,25.9223026 9.42568426,25.9150914 C9.37472585,25.9126877 9.32713261,25.9069188 9.2809816,25.9069188 C9.23434984,25.9088418 9.19060252,25.9069188 9.1492589,25.9107648 C9.10743454,25.9155722 9.06897536,25.9203796 9.03243914,25.9237448 C8.99734514,25.9299944 8.96465483,25.9372056 8.93532971,25.9429745 C8.92090751,25.9458589 8.90600458,25.9487433 8.89302461,25.9511471 C8.87956389,25.954993 8.86706466,25.9588389 8.85600765,25.9617234 C8.8324514,25.9689345 8.81322181,25.9747034 8.79831888,25.9795108 C8.76514783,25.9881642 8.74880268,25.9929716 8.74880268,25.9929716 C8.74880268,25.9929716 8.76418635,25.9838375 8.79255,25.967973 C8.80697219,25.9598004 8.8252403,25.9501856 8.84543137,25.938167 C8.85648839,25.9323981 8.86706466,25.9256678 8.87956389,25.9198989 C8.89206313,25.9146107 8.90600458,25.9088418 8.92090751,25.9025922 C8.9497519,25.8910544 8.98196146,25.8771129 9.01753621,25.8636521 C9.05407243,25.852595 9.09349309,25.841538 9.13579819,25.8295195 C9.17858403,25.8189431 9.22569652,25.8131742 9.2737705,25.8035594 C9.3232867,25.7953868 9.37616807,25.7963483 9.43001092,25.7920216 C9.48577673,25.7925024 9.54346551,25.7944253 9.60211576,25.7997135 C9.66124675,25.8078861 9.72326218,25.8150972 9.78383539,25.8324039 C9.90834699,25.8593254 10.0343008,25.9117263 10.1568894,25.9785493 C10.1876568,25.9968175 10.2174627,26.0150857 10.2487107,26.0338346 C10.2775551,26.0530643 10.305438,26.0766206 10.3342824,26.0987347 L10.3770683,26.1314251 L10.4169697,26.1679615 C10.4438911,26.1934408 10.471774,26.2179586 10.4967725,26.2448801 C10.5982085,26.3530469 10.6818573,26.4799627 10.750603,26.6140896 L10.7933889,26.7164875 C10.7996385,26.7328327 10.8068496,26.7462935 10.8126185,26.7660039 L10.8255985,26.8083091 C10.8400206,26.8059054 10.8501162,26.804944 10.8669421,26.8020595 C10.8866524,26.7986943 10.9068435,26.7948484 10.927996,26.7910024 C10.9501101,26.7857143 10.9717433,26.7804261 10.9957803,26.7736958 C11.0438543,26.7616772 11.0967357,26.7486972 11.153463,26.7333135 C11.208748,26.7126416 11.2688405,26.6924504 11.3322982,26.6698556 C11.3957558,26.64678 11.4601749,26.6126474 11.52844,26.5828414 C11.5957436,26.550151 11.6630471,26.5078457 11.7346773,26.4689056 C11.8029424,26.4227545 11.8731304,26.3761225 11.9428377,26.3222795 C12.008699,26.2641098 12.0827329,26.2126704 12.1447484,26.1439244 C12.2798362,26.0174894 12.394733,25.8583639 12.501938,25.6920274 C12.6077007,25.5223256 12.6850999,25.3309905 12.7461538,25.132925 C12.7581723,25.0824472 12.7711523,25.0319693 12.78269,24.9814915 C12.7913433,24.9560122 12.7947085,24.9310136 12.7971122,24.9050536 L12.8081692,24.8315001 L12.8192262,24.7569852 C12.8245144,24.7329481 12.8240336,24.7016999 12.8259566,24.6742976 L12.832687,24.5122878 C12.828841,24.3012422 12.8019196,24.0911582 12.7471153,23.8911697 C12.6855806,23.6940657 12.6077007,23.5022499 12.5024187,23.3325481 C12.455787,23.2594754 12.4130011,23.1979405 12.3702153,23.1402515 C12.3048347,23.1897679 12.2380119,23.2349576 12.1735927,23.2787051 C12.0798485,23.3344711 11.986585,23.3815838 11.8976481,23.4262927 C11.8043846,23.4628291 11.7178515,23.5041728 11.6313183,23.5301329 C11.5433429,23.5536892 11.4625786,23.5806107 11.3837373,23.5964752 C11.304896,23.6104167 11.2308621,23.6238775 11.1630778,23.6344538 C11.094332,23.6402227 11.0308743,23.6421457 10.9736663,23.6459916 C10.9453027,23.6479146 10.9193427,23.6493568 10.8933828,23.650799 C10.8679036,23.650799 10.8453088,23.6479146 10.8231948,23.6469531 C10.7780052,23.6440686 10.7419497,23.6421457 10.7111824,23.6402227 C10.6510899,23.635896 10.6198418,23.6334923 10.6198418,23.6334923 C10.6198418,23.6334923 10.6506092,23.6277234 10.7097402,23.6176278 C10.7400268,23.6128204 10.7756015,23.6065708 10.8188681,23.6003211 C10.8400206,23.5964752 10.8635769,23.5921485 10.8876139,23.5878219 C10.9111701,23.582053 10.9361686,23.5758033 10.9635708,23.5690729 C11.0169329,23.5551314 11.0760639,23.5402285 11.1400023,23.5234025 C11.2020177,23.4998462 11.2693213,23.4772513 11.3409515,23.4527335 C11.4111395,23.4262927 11.4832504,23.3878334 11.5596881,23.3546622 C11.6351642,23.3176451 11.7116018,23.2705325 11.7914046,23.2272657 C11.8673615,23.1753457 11.9471643,23.1224641 12.0240827,23.0618907 C12.0860981,23.0066054 12.1538824,22.9551661 12.2158978,22.8941119 L12.3697346,22.7388324 C12.4716514,22.6229737 12.5639534,22.492212 12.6514481,22.3561622 C12.76971,22.1653078 12.8552817,21.9513778 12.924989,21.729756 C12.937969,21.6735092 12.9523912,21.6172625 12.9658519,21.5595735 C12.9745052,21.5312097 12.9783511,21.5033267 12.982197,21.4754437 L12.9942155,21.3917947 L13.006234,21.3081457 C13.0124836,21.2812242 13.0115221,21.24613 13.0134451,21.2153626 L13.0220984,21.0350845 C13.017291,20.798079 12.9874852,20.5625156 12.9254697,20.3380094 C12.8562432,20.1163875 12.76971,19.9029383 12.6514481,19.7125647 C12.5557809,19.5625733 12.453864,19.4202738 12.339448,19.2967233 C12.3351213,19.3337404 12.3307946,19.3702767 12.326468,19.4058516 C12.3014695,19.5140184 12.2860858,19.6188201 12.2557992,19.7149684 C12.2231089,19.8106359 12.1981105,19.9014961 12.1634972,19.9832221 C12.126961,20.0659097 12.0933092,20.1413861 12.0606189,20.2096514 C12.0236019,20.2769552 11.986585,20.3365671 11.9534139,20.3908909 C11.9380303,20.4182932 11.9226466,20.4432917 11.9082244,20.4678096 C11.8918792,20.4908851 11.8755341,20.5105956 11.8611119,20.530306 C11.831306,20.569246 11.8067883,20.6019364 11.7856358,20.6283772 C11.7447729,20.680778 11.7226588,20.708661 11.7226588,20.708661 C11.7226588,20.708661 11.7366003,20.6759706 11.7640025,20.6153972 C11.7779439,20.5851105 11.7947698,20.5480934 11.8149609,20.5043459 C11.8250564,20.4827125 11.8356327,20.4591562 11.8476512,20.4346384 C11.8563045,20.4086784 11.8654386,20.3812761 11.8764956,20.3524316 C11.8971674,20.2942619 11.9207236,20.2312847 11.9452414,20.162058 C11.9611058,20.0909082 11.9822583,20.0149511 12.0034109,19.9337058 C12.0240827,19.8524604 12.0332167,19.7625618 12.0510041,19.6717016 C12.0635033,19.5793993 12.0683107,19.4798858 12.0774448,19.3794108 C12.0769641,19.2774936 12.0784063,19.1722112 12.0707144,19.0635636 C12.0562922,18.9549161 12.0543693,18.843384 12.0279286,18.7313713 C11.9918731,18.5039805 11.9087051,18.2751476 11.8115957,18.0487184 C11.7106404,17.8218084 11.5673799,17.6093206 11.4063321,17.4078899 C11.3630655,17.3607773 11.3202797,17.3127031 11.2750901,17.2651097 C11.2544183,17.2386689 11.2318236,17.217997 11.208748,17.1973252 L11.1390408,17.134348 L11.070295,17.0704094 C11.0496232,17.0492568 11.0159714,17.0281042 10.9895307,17.0069515 L10.8284829,16.8867662 C10.6083041,16.7449474 10.3732223,16.6252428 10.1290065,16.543036 C9.88238704,16.4685211 9.63192162,16.4151588 9.38434065,16.4050632 C9.13724041,16.3992943 8.89398609,16.4069861 8.66899988,16.4584255 C8.55506456,16.4747707 8.45026329,16.5156337 8.34498128,16.5420745 C8.24162223,16.5757264 8.14307058,16.6151472 8.04932633,16.6536065 C7.95894725,16.7002385 7.86856818,16.74014 7.78828464,16.7872527 C7.70944331,16.836769 7.62964051,16.8790743 7.56281769,16.9271484 C7.49503338,16.9776263 7.43157573,17.0261812 7.37244474,17.0684864 C7.31764041,17.1155991 7.26764347,17.1603081 7.22245394,17.2006904 C7.19985917,17.2208815 7.17678366,17.2405919 7.15659259,17.2583793 C7.13784374,17.2780897 7.12005637,17.2968387 7.10274973,17.3146261 C7.06957869,17.350201 7.04169578,17.3795262 7.01862028,17.404044 C6.97246926,17.4521182 6.94747079,17.4780782 6.94747079,17.4780782 C6.94747079,17.4780782 6.96477742,17.4473107 6.99794847,17.3896218 C7.01621658,17.3602965 7.03688839,17.3252024 7.06044464,17.2838586 C7.07390535,17.2631867 7.0854431,17.2396304 7.10130752,17.2170356 C7.11813341,17.1944407 7.13640152,17.1713651 7.15611185,17.1458858 C7.19360955,17.095408 7.23687613,17.0386805 7.28446936,16.9785878 C7.33687,16.922341 7.39552025,16.8632098 7.45753568,16.7992712 C7.52003185,16.7362941 7.59598873,16.6790858 7.67194561,16.6132242 C7.75030619,16.5488049 7.84164675,16.4964041 7.93250656,16.4329462 C8.02913526,16.3795839 8.13057135,16.3223756 8.24018001,16.2718978 C8.35075016,16.2276696 8.4661277,16.1752687 8.5906393,16.1440205 C8.64977029,16.1252716 8.7103435,16.1089264 8.77187819,16.0940234 C8.83341288,16.0449878 8.89398609,15.9911448 8.95840522,15.9382632 C9.0343621,15.8613445 9.1141649,15.7839452 9.18867956,15.6974117 C9.25886757,15.6070323 9.34155481,15.5224218 9.40549319,15.4181009 C9.54779216,15.2219584 9.65547787,14.9897602 9.75210656,14.748428 C9.84633156,14.504692 9.89777071,14.2398035 9.92709584,13.9696268 C9.92998027,13.9028037 9.93478767,13.8345384 9.93719137,13.7657924 C9.94055655,13.7306982 9.93959507,13.6984886 9.93719137,13.6648367 L9.93190323,13.5667654 L9.92805732,13.4677326 C9.9290188,13.4364844 9.91988474,13.3961022 9.91555808,13.3600465 L9.88623296,13.1504433 C9.85931153,13.0283349 9.82517901,12.9081495 9.78623909,12.7898871 C9.77470133,12.754793 9.7622021,12.7206604 9.74874138,12.6855662 C9.72518514,12.6197046 9.69682149,12.5552853 9.66845784,12.4908659 C9.64201716,12.4317347 9.61509573,12.3726035 9.58480913,12.3149145 C9.46462419,12.0990616 9.33001705,11.8928235 9.16752701,11.7168721 C8.98869182,11.5279407 8.80264553,11.3524701 8.59640818,11.2245928 C8.49929874,11.1510394 8.39065156,11.103446 8.29258065,11.0447955 C8.19018308,10.9923947 8.08682403,10.9486472 7.98827238,10.9077842 C7.97721536,10.9039382 7.96663909,10.9010538 7.95606281,10.8972079 C8.39497821,10.3674307 8.85937282,9.85159511 9.35549626,9.35546989 C17.982852,0.728083013 32.0190109,0.728083013 40.6444437,9.35450841 C49.270838,17.9804531 49.2722802,32.017624 40.6444437,40.6450109 L40.6444437,40.6450109 Z" id="Victoire" fill="#161615" sketch:type="MSShapeGroup"></path>
    </g>
</svg>