<?xml version="1.0" encoding="UTF-8" standalone="no"?>
<svg width="50px" height="71px" viewBox="0 0 50 71" version="1.1" xmlns="http://www.w3.org/2000/svg" xmlns:xlink="http://www.w3.org/1999/xlink" xmlns:sketch="http://www.bohemiancoding.com/sketch/ns">
    <!-- Generator: Sketch 3.2.2 (9983) - http://www.bohemiancoding.com/sketch -->
    <title>css3</title>
    <desc>Created with Sketch.</desc>
    <defs></defs>
    <g id="Page-1" stroke="none" stroke-width="1" fill="none" fill-rule="evenodd" sketch:type="MSPage">
        <g id="css3" sketch:type="MSLayerGroup">
            <g id="Page-1" sketch:type="MSShapeGroup">
                <g id="Layer_1">
                    <path d="M34.9791946,2.64453919 L39.2869128,7.34285036 L39.2869128,9.57926603 L30.414094,9.57926603 L30.414094,6.96086698 L34.7209732,6.96086698 L30.414094,2.26238717 L30.414094,0.0227672209 L39.1214765,0.0227672209 L39.1214765,2.64453919 L34.9791946,2.64453919 Z M28.6553691,2.64453919 L24.5130872,2.64453919 L28.8206376,7.34285036 L28.8206376,9.57926603 L19.9478188,9.57926603 L19.9478188,6.96086698 L24.2552013,6.96086698 L19.9478188,2.26238717 L19.9478188,0.0227672209 L28.6553691,0.0227672209 L28.6553691,2.64453919 L28.6553691,2.64453919 Z M18.2916107,2.75095487 L13.8218121,2.75095487 L13.8218121,6.85124703 L18.2916107,6.85124703 L18.2916107,9.57926603 L10.6449664,9.57926603 L10.6449664,0.0227672209 L18.2916107,0.0227672209 L18.2916107,2.75095487 L18.2916107,2.75095487 Z" id="Shape" fill="#161615"></path>
                    <path d="M0.0119127517,13.9419715 L49.9196309,13.9419715 L45.3733221,65.1380309 L24.9352349,70.833209 L4.55402685,65.1462945 L0.0119127517,13.9419715 Z" id="Shape" fill="#161615"></path>
                    <g id="Group" transform="translate(9.228188, 23.947743)" fill="#FFFFFF">
                        <path d="M15.7377517,12.7321045 L24.0053691,12.7321045 L24.5763423,6.30129216 L15.7377517,6.30129216 L15.7377517,0.0210807601 L15.759396,0.0210807601 L31.404698,0.0210807601 L31.2548658,1.70602375 L29.7192953,19.01181 L15.7377517,19.01181 L15.7377517,12.7321045 L15.7377517,12.7321045 Z" id="Shape"></path>
                        <path d="M8.78942953,27.16062 L8.34446309,22.1521686 L4.96342282,22.1521686 L2.07281879,22.1521686 L2.94798658,32.012399 L15.7463087,35.5836485 L15.7751678,29.0415297 L8.78942953,27.16062 Z" id="Shape"></path>
                        <path d="M23.4743289,18.7460238 L22.7219799,27.1564038 L15.7535235,29.0469264 L15.7535235,35.5806128 L28.5620805,32.012399 L28.6560403,30.9516152 L29.742953,18.7460238 L23.4743289,18.7460238 L23.4743289,18.7460238 Z" id="Shape"></path>
                        <path d="M15.759396,0.0210807601 L15.759396,3.92152732 L15.759396,6.28577672 L15.759396,6.30129216 L0.687583893,6.30129216 L0.66761745,6.30129216 L0.542281879,4.88972447 L0.257550336,1.70602375 L0.108221477,0.0210807601 L15.759396,0.0210807601 L15.759396,0.0210807601 Z" id="Shape"></path>
                        <path d="M15.7377517,12.7327791 L15.7377517,16.6333943 L15.7377517,18.9973064 L15.7377517,19.0128219 L8.88741611,19.0128219 L8.86744966,19.0128219 L8.74228188,17.6014228 L8.45738255,14.4177221 L8.30805369,12.7327791 L15.7377517,12.7327791 L15.7377517,12.7327791 Z" id="Shape"></path>
                    </g>
                </g>
            </g>
        </g>
    </g>
</svg>