<?xml version="1.0" encoding="UTF-8" standalone="no"?>
<svg width="50px" height="48px" viewBox="0 0 50 48" version="1.1" xmlns="http://www.w3.org/2000/svg" xmlns:xlink="http://www.w3.org/1999/xlink" xmlns:sketch="http://www.bohemiancoding.com/sketch/ns">
    <!-- Generator: Sketch 3.2.2 (9983) - http://www.bohemiancoding.com/sketch -->
    <title>jquery</title>
    <desc>Created with Sketch.</desc>
    <defs></defs>
    <g id="Page-1" stroke="none" stroke-width="1" fill="none" fill-rule="evenodd" sketch:type="MSPage">
        <g id="jquery" sketch:type="MSLayerGroup" fill="#161615">
            <g id="Group-22" transform="translate(0.000000, 6.720000)" sketch:type="MSShapeGroup">
                <path d="M4.02830189,4.5072 C-0.270754717,10.79232 0.260377358,18.96864 3.55,25.64736 C3.62358491,25.81056 3.70849057,25.96512 3.78867925,26.12256 C3.83490566,26.22432 3.88773585,26.32704 3.94433962,26.42688 C3.96886792,26.48256 4.00754717,26.54304 4.03867925,26.59776 C4.09150943,26.70624 4.14811321,26.80704 4.20471698,26.91072 C4.31037736,27.09216 4.41603774,27.27648 4.52075472,27.456 C4.58113208,27.55584 4.63773585,27.65664 4.70471698,27.75648 C4.81698113,27.9504 4.94716981,28.14144 5.06415094,28.33536 C5.11603774,28.41792 5.16603774,28.49856 5.22264151,28.5792 C5.39056604,28.84032 5.56037736,29.09856 5.74716981,29.35296 C5.74716981,29.36064 5.75377358,29.36736 5.76037736,29.37024 C5.78867925,29.41344 5.82075472,29.45472 5.8490566,29.49408 C6.00754717,29.71488 6.16603774,29.92992 6.33113208,30.14304 C6.38773585,30.22176 6.4509434,30.30048 6.50754717,30.37728 C6.65849057,30.56352 6.80660377,30.74976 6.95471698,30.93504 C7.01132075,31.00032 7.06698113,31.07136 7.12735849,31.13952 C7.3245283,31.38048 7.53207547,31.62048 7.74339623,31.8576 C7.74339623,31.86048 7.75,31.86624 7.75377358,31.872 C7.76132075,31.88064 7.76792453,31.88928 7.78207547,31.89888 C7.98584906,32.1264 8.19433962,32.35008 8.40566038,32.57184 C8.47169811,32.64 8.53867925,32.70624 8.61320755,32.77824 C8.7745283,32.94528 8.93679245,33.11328 9.10943396,33.2784 C9.18018868,33.34656 9.25,33.4128 9.31698113,33.47904 C9.54245283,33.69408 9.76792453,33.90912 10.0037736,34.11456 C10.0075472,34.1184 10.0113208,34.12032 10.0141509,34.1232 C10.0528302,34.15776 10.095283,34.19232 10.1311321,34.22592 C10.3377358,34.4064 10.5462264,34.58592 10.7575472,34.76352 C10.8424528,34.83552 10.9264151,34.90272 11.0113208,34.9728 C11.1867925,35.11488 11.3632075,35.25024 11.5386792,35.38656 C11.6311321,35.45664 11.7226415,35.52864 11.8169811,35.6016 C12.0075472,35.74656 12.204717,35.88864 12.3981132,36.02784 C12.4688679,36.08064 12.5386792,36.13248 12.6132075,36.18048 C12.6311321,36.19584 12.6518868,36.2112 12.6698113,36.2256 C12.8632075,36.35424 13.0462264,36.48 13.2367925,36.60672 C13.3207547,36.6624 13.4018868,36.71616 13.4830189,36.77184 C13.7783019,36.96288 14.0745283,37.14816 14.3669811,37.32672 C14.4509434,37.37184 14.5358491,37.4208 14.6169811,37.4688 C14.8349057,37.59744 15.0566038,37.72512 15.2820755,37.84704 C15.4056604,37.91712 15.5283019,37.9776 15.6556604,38.04192 C15.8066038,38.1264 15.9650943,38.21184 16.1273585,38.29632 C16.1660377,38.31264 16.204717,38.32704 16.2396226,38.34624 C16.3066038,38.37696 16.3707547,38.41152 16.4330189,38.4432 C16.6801887,38.56704 16.9339623,38.6832 17.1943396,38.80128 C17.2433962,38.82528 17.2962264,38.8464 17.3490566,38.87328 C17.6415094,39.00192 17.9339623,39.12576 18.2330189,39.24576 C18.3037736,39.27264 18.3735849,39.30528 18.4481132,39.33024 C18.7188679,39.43776 19.0009434,39.54336 19.2792453,39.64512 C19.3141509,39.66048 19.345283,39.67104 19.3811321,39.68256 C19.690566,39.79104 19.9971698,39.8928 20.3103774,39.99168 C20.3839623,40.0128 20.4584906,40.03968 20.5358491,40.05984 C20.8566038,40.15776 21.1660377,40.27296 21.4933962,40.33536 C42.2792453,44.19072 48.3179245,27.624 48.3179245,27.624 C43.2443396,34.344 34.240566,36.12 25.7122642,34.14528 C25.395283,34.07232 25.0820755,33.9696 24.7613208,33.87264 C24.6867925,33.85152 24.6028302,33.82656 24.5283019,33.79968 C24.2188679,33.70464 23.9132075,33.60192 23.6132075,33.49824 C23.5707547,33.48384 23.5254717,33.46848 23.4830189,33.45024 C23.2122642,33.3552 22.9443396,33.25152 22.6773585,33.14592 C22.6028302,33.11328 22.5254717,33.0864 22.4509434,33.0576 C22.1556604,32.93952 21.8632075,32.8128 21.5783019,32.68512 C21.5150943,32.66208 21.4613208,32.6352 21.4018868,32.61024 C21.1518868,32.49312 20.9122642,32.37888 20.6698113,32.25984 C20.595283,32.22816 20.5292453,32.19264 20.454717,32.1552 C20.2641509,32.06304 20.0745283,31.96128 19.8877358,31.86048 C19.7575472,31.79328 19.6311321,31.72992 19.5075472,31.6608 C19.2792453,31.53504 19.05,31.40256 18.8207547,31.27392 C18.75,31.22496 18.6726415,31.18368 18.5915094,31.13952 C18.2962264,30.96 17.9971698,30.77568 17.704717,30.5856 C17.6207547,30.53184 17.5424528,30.47712 17.4650943,30.4224 C17.2509434,30.28416 17.0396226,30.1392 16.8311321,29.99616 C16.7641509,29.9472 16.6981132,29.89728 16.6273585,29.84736 C16.4264151,29.70336 16.2292453,29.55936 16.0292453,29.4096 C15.9443396,29.34144 15.8566038,29.27424 15.7641509,29.20608 C15.5849057,29.064 15.4056604,28.9248 15.2264151,28.77792 C15.1481132,28.71168 15.0679245,28.6464 14.9896226,28.58208 C14.7575472,28.39296 14.5396226,28.20192 14.3169811,28.00512 C14.2962264,27.98208 14.2650943,27.96192 14.2396226,27.94272 C14.0037736,27.72768 13.7679245,27.50784 13.5358491,27.28896 C13.4650943,27.2208 13.4056604,27.1584 13.3349057,27.09312 C13.1660377,26.92512 12.9971698,26.76 12.8320755,26.59008 C12.7613208,26.51904 12.6971698,26.45184 12.6311321,26.38368 C12.4198113,26.16672 12.2113208,25.94304 12.0075472,25.71456 C11.9971698,25.70496 11.9867925,25.6944 11.9754717,25.68192 C11.7613208,25.44192 11.5537736,25.19808 11.345283,24.9504 C11.2886792,24.88416 11.2367925,24.816 11.1801887,24.75168 C11.0283019,24.5616 10.8773585,24.37056 10.7226415,24.18048 C10.6726415,24.10656 10.6160377,24.03744 10.5603774,23.96544 C10.3801887,23.73024 10.2084906,23.496 10.0358491,23.25408 C5.30283019,16.68384 3.59528302,7.6176 7.38113208,0.17664" id="Fill-21"></path>
            </g>
            <path d="M17.3735849,5.92896 C14.2575472,10.48032 14.4301887,16.57344 16.8566038,21.3888 C17.2575472,22.1952 17.7150943,22.97856 18.2292453,23.7216 C18.6943396,24.40224 19.2084906,25.20864 19.8311321,25.75488 C20.05,26.00544 20.2858491,26.24928 20.5292453,26.49504 C20.5886792,26.55552 20.6490566,26.61504 20.7122642,26.67936 C20.9443396,26.90688 21.1801887,27.13056 21.4226415,27.34944 C21.4301887,27.35904 21.4443396,27.36768 21.4518868,27.37632 C21.454717,27.37824 21.4584906,27.38112 21.4584906,27.38112 C21.7292453,27.62496 22.004717,27.85632 22.2896226,28.08192 C22.3566038,28.13088 22.4160377,28.18464 22.4830189,28.23264 C22.7650943,28.45728 23.0537736,28.67136 23.3462264,28.88256 C23.3566038,28.8864 23.3632075,28.89408 23.3773585,28.89984 C23.504717,28.992 23.6377358,29.0784 23.7754717,29.16768 C23.8349057,29.20704 23.8981132,29.25408 23.9584906,29.29152 C24.1726415,29.4336 24.3849057,29.56512 24.6028302,29.69664 C24.6349057,29.71296 24.6660377,29.73024 24.6981132,29.74656 C24.8811321,29.85984 25.0745283,29.97024 25.2688679,30.07104 C25.3349057,30.11232 25.4018868,30.144 25.4688679,30.18144 C25.6028302,30.2496 25.7367925,30.3216 25.8669811,30.39168 C25.8839623,30.40032 25.909434,30.41088 25.9301887,30.42048 C26.204717,30.55872 26.4830189,30.68544 26.7575472,30.81312 C26.8245283,30.84 26.8811321,30.86304 26.9443396,30.88992 C27.1698113,30.98784 27.3981132,31.0848 27.6245283,31.17312 C27.7264151,31.20672 27.8216981,31.248 27.9160377,31.2816 C28.1235849,31.35744 28.3358491,31.4304 28.5433962,31.50048 C28.645283,31.53504 28.7367925,31.56288 28.8283019,31.5936 C29.1245283,31.68864 29.4235849,31.81056 29.7367925,31.86048 C45.7792453,34.56768 49.490566,21.99264 49.490566,21.99264 C46.1490566,26.89056 39.6811321,29.22336 32.7792453,27.40032 C32.4688679,27.31968 32.1669811,27.22944 31.8707547,27.13056 C31.7754717,27.1056 31.6915094,27.07584 31.6,27.0432 C31.3849057,26.97312 31.1698113,26.90016 30.9622642,26.82048 C30.8669811,26.78496 30.7688679,26.74944 30.6735849,26.712 C30.4443396,26.61984 30.2160377,26.53056 29.9933962,26.43072 C29.9273585,26.40288 29.8632075,26.37984 29.8113208,26.352 C29.5254717,26.22624 29.2433962,26.09184 28.9688679,25.95744 C28.8283019,25.88352 28.6915094,25.81248 28.55,25.7376 C28.4660377,25.6944 28.3849057,25.65312 28.3103774,25.61376 C28.1235849,25.51488 27.9509434,25.4112 27.7754717,25.3056 C27.7330189,25.2816 27.690566,25.26048 27.6490566,25.23552 C27.4339623,25.10304 27.2122642,24.97056 27.0075472,24.83232 C26.9377358,24.79104 26.8773585,24.744 26.8103774,24.70176 C26.6698113,24.61056 26.5320755,24.51936 26.3877358,24.42048 C26.0962264,24.21408 25.8103774,23.99616 25.5254717,23.77728 C25.4584906,23.7216 25.395283,23.67168 25.3320755,23.61792 C22.3037736,21.192 19.9084906,17.87424 18.7754717,14.1168 C17.5783019,10.2144 17.8424528,5.83392 19.9056604,2.28096" id="Fill-23" sketch:type="MSShapeGroup"></path>
            <path d="M28.5924528,1.97184 C26.754717,4.71648 26.5783019,8.12544 27.8462264,11.15328 C29.190566,14.3712 31.940566,16.896 35.145283,18.09024 C35.2754717,18.14208 35.4056604,18.18528 35.5396226,18.23232 C35.6,18.2496 35.6556604,18.26976 35.7198113,18.28896 C35.9066038,18.34848 36.0924528,18.42048 36.2858491,18.45792 C45.1490566,20.19936 47.5509434,13.82976 48.195283,12.8928 C46.0858491,15.97824 42.5471698,16.71744 38.2056604,15.64512 C37.8641509,15.56064 37.490566,15.43584 37.159434,15.31392 C36.7367925,15.16128 36.3179245,14.98368 35.909434,14.7888 C35.145283,14.41056 34.4056604,13.95552 33.7226415,13.42848 C29.8349057,10.42944 27.4273585,4.7088 29.9622642,0.04896" id="Fill-24" sketch:type="MSShapeGroup"></path>
        </g>
    </g>
</svg>