<?xml version="1.0" encoding="UTF-8" standalone="no"?>
<svg width="50px" height="50px" viewBox="0 0 50 50" version="1.1" xmlns="http://www.w3.org/2000/svg" xmlns:xlink="http://www.w3.org/1999/xlink" xmlns:sketch="http://www.bohemiancoding.com/sketch/ns">
    <!-- Generator: Sketch 3.2.2 (9983) - http://www.bohemiancoding.com/sketch -->
    <title>symfony2</title>
    <desc>Created with Sketch.</desc>
    <defs></defs>
    <g id="Page-1" stroke="none" stroke-width="1" fill="none" fill-rule="evenodd" sketch:type="MSPage">
        <path d="M24.8058559,0 C11.1009886,0 -0.00874587459,11.1097345 -0.00874587459,24.8137168 C-0.00874587459,38.5199115 11.1009886,49.6309735 24.8058559,49.6309735 C38.5116081,49.6309735 49.6217851,38.5199115 49.6217851,24.8137168 C49.6217851,11.1097345 38.5116081,0 24.8058559,0 L24.8058559,0 Z M38.1890417,14.3628319 C37.0399267,14.4026549 36.2465639,13.7159292 36.2111656,12.6734513 C36.1978913,12.290708 36.2965639,11.9561947 36.5585108,11.5654867 C36.8151479,11.0637168 36.8695727,11.0061947 36.863378,10.7880531 C36.8399267,10.130531 35.8478913,10.1061947 35.5757674,10.1190265 C31.8509886,10.2420354 30.8691302,15.269469 30.0731125,19.3570796 L29.683732,21.5132743 C31.8284223,21.8269912 33.3514311,21.439823 34.2009886,20.889823 C35.3970063,20.1137168 33.8664754,19.3163717 34.0589532,18.4331858 C34.2545285,17.5331858 35.0726701,17.099115 35.723555,17.0809735 C36.634617,17.0584071 37.2841745,18.0030973 37.2624931,18.9615044 C37.2306347,20.5469027 35.1279798,22.7238938 30.9226701,22.6349558 C30.4102807,22.6225664 29.9385993,22.5871681 29.4996612,22.5345133 L28.7062984,26.9137168 C27.9956789,30.230531 27.0509886,34.7615044 23.67444,38.7150442 C20.77444,42.1632743 17.8301922,42.6995575 16.5120506,42.7442478 C14.0456789,42.8269912 12.4098382,41.5128319 12.3523161,39.7575221 C12.2952364,38.0584071 13.7983338,37.1314159 14.784617,37.0973451 C16.1005462,37.0544248 17.0116081,38.0075221 17.0461214,39.1066372 C17.0797497,40.0376106 16.5943515,40.3278761 16.2726701,40.5035398 C16.0585108,40.6752212 15.7350594,40.8517699 15.7470063,41.2345133 C15.7549709,41.3986726 15.9310771,41.7756637 16.4793072,41.7588496 C17.5213426,41.7221239 18.2138205,41.2066372 18.6974488,40.8619469 C21.1001037,38.8597345 22.0248824,35.3716814 23.2355019,29.0212389 L23.4899267,27.480531 C23.9027586,25.4159292 24.3607232,23.1128319 25.0589532,20.8172566 C23.3651479,19.5429204 22.3505462,17.9619469 20.0717851,17.3438053 C18.5111656,16.9199115 17.5585108,17.2800885 16.8899267,18.1261062 C16.0970063,19.1283186 16.3598382,20.4327434 17.1257674,21.1977876 L18.3908116,22.5977876 C19.9421391,24.3893805 20.7899267,25.7840708 20.4709001,27.660177 C19.9647055,30.6548673 16.3970063,32.9526549 12.1779798,31.6539823 C8.57709483,30.5451327 7.90497094,27.9955752 8.33682935,26.5911504 C8.71824528,25.3553097 9.70010368,25.1221239 10.6607232,25.4168142 C11.6899267,25.7349558 12.0925816,26.9845133 11.7983338,27.9446903 C11.7651479,28.0473451 11.7124931,28.2185841 11.6045285,28.4482301 C11.4855019,28.7128319 11.264263,28.9455752 11.1691302,29.2548673 C10.9372718,30.0084071 11.9709001,30.5442478 12.6908116,30.7646018 C14.3023161,31.2597345 15.873555,30.4181416 16.2717851,29.1137168 C16.6425816,27.9159292 15.884617,27.080531 15.5709001,26.7597345 L14.0456789,25.1265487 C13.3483338,24.3495575 11.8124931,22.1827434 12.5611656,19.75 C12.8505462,18.8115044 13.4589532,17.8163717 14.3403692,17.1570796 C16.2036435,15.769469 18.2284223,15.5411504 20.1571833,16.0955752 C22.653201,16.8132743 23.8518736,18.4632743 25.4067409,19.7389381 C26.2766524,17.1862832 27.4824046,14.6876106 29.2965639,12.579646 C30.9350594,10.659292 33.1350594,9.26769912 35.6562984,9.18141593 C38.17444,9.09867257 40.0784223,10.239823 40.1412541,12.0473451 C40.1664754,12.8159292 39.7257674,14.3115044 38.1890417,14.3628319 L38.1890417,14.3628319 Z" id="symfony2" fill="#161615" sketch:type="MSShapeGroup"></path>
    </g>
</svg>