<?xml version="1.0" encoding="UTF-8" standalone="no"?>
<svg width="52px" height="50px" viewBox="0 0 52 50" version="1.1" xmlns="http://www.w3.org/2000/svg" xmlns:xlink="http://www.w3.org/1999/xlink" xmlns:sketch="http://www.bohemiancoding.com/sketch/ns">
    <!-- Generator: Sketch 3.2.2 (9983) - http://www.bohemiancoding.com/sketch -->
    <title>github</title>
    <desc>Created with Sketch.</desc>
    <defs></defs>
    <g id="Page-1" stroke="none" stroke-width="1" fill="none" fill-rule="evenodd" sketch:type="MSPage">
        <path d="M0,25.633467 C0,36.9584555 7.44909297,46.5651047 17.780779,49.954576 C19.081617,50.1906116 19.5556647,49.3991056 19.5556647,48.719323 C19.5556647,48.1119247 19.533319,46.4990147 19.52055,44.3605321 C12.2885294,45.9089257 10.7626385,40.9238537 10.7626385,40.9238537 C9.57991344,37.9623936 7.87525707,37.1740347 7.87525707,37.1740347 C5.51459529,35.5847282 8.05402253,35.6161996 8.05402253,35.6161996 C10.6636791,35.7971603 12.0363424,38.2582249 12.0363424,38.2582249 C14.3555051,42.1748424 18.1223488,41.0434451 19.6035483,40.3872661 C19.8397741,38.7318697 20.5117407,37.6020459 21.2539366,36.9616026 C15.4807698,36.314865 9.4107247,34.1150132 9.4107247,24.2927848 C9.4107247,21.494976 10.424261,19.2054306 12.0874183,17.4147071 C11.8192701,16.766396 10.9270389,14.1589893 12.3427975,10.6310438 C12.3427975,10.6310438 14.5246938,9.9418198 19.4918199,13.2589069 C21.56518,12.6892743 23.7901716,12.4060315 26.0007981,12.3950166 C28.2098284,12.4060315 30.4332239,12.6892743 32.5097762,13.2589069 C37.4737101,9.9418198 39.6524141,10.6310438 39.6524141,10.6310438 C41.071365,14.1589893 40.1791338,16.766396 39.9125817,17.4147071 C41.5789312,19.2054306 42.5844869,21.494976 42.5844869,24.2927848 C42.5844869,34.1401903 36.5048651,36.3069972 30.714141,36.9411462 C31.6462752,37.7326523 32.4778538,39.2967816 32.4778538,41.688609 C32.4778538,45.1142725 32.4459314,47.8790363 32.4459314,48.719323 C32.4459314,49.4053999 32.9151908,50.2032002 34.2335861,49.9530025 C44.5572915,46.5556633 52,36.9553083 52,25.633467 C52,11.4760513 40.3578993,0 25.9976058,0 C11.6421007,0 0,11.4760513 0,25.633467 Z" id="github" fill="#161614" sketch:type="MSShapeGroup"></path>
    </g>
</svg>