<?xml version="1.0" encoding="UTF-8" standalone="no"?>
<svg width="50px" height="71px" viewBox="0 0 50 71" version="1.1" xmlns="http://www.w3.org/2000/svg" xmlns:xlink="http://www.w3.org/1999/xlink" xmlns:sketch="http://www.bohemiancoding.com/sketch/ns">
    <!-- Generator: Sketch 3.2.2 (9983) - http://www.bohemiancoding.com/sketch -->
    <title>html5</title>
    <desc>Created with Sketch.</desc>
    <defs></defs>
    <g id="Page-1" stroke="none" stroke-width="1" fill="none" fill-rule="evenodd" sketch:type="MSPage">
        <g id="html5" sketch:type="MSLayerGroup">
            <g id="Page-1" sketch:type="MSShapeGroup">
                <g id="Group">
                    <path d="M4.59446309,65.2973476 L0.0525167785,13.9711095 L49.9602349,13.9711095 L45.4135906,65.2890643 L24.9758389,70.9976333 L4.59446309,65.2973476 L4.59446309,65.2973476 Z" id="Shape" fill="#161615"></path>
                    <path d="M25.0063758,37.204 L16.7387584,37.204 L16.1676174,30.7578762 L25.0063758,30.7578762 L25.0063758,24.4627119 L24.9847315,24.4627119 L9.33942953,24.4627119 L9.48909396,26.1516667 L11.0246644,43.4986571 L25.0063758,43.4986571 L25.0063758,37.204 L25.0063758,37.204 Z" id="Shape" fill="#FFFFFF"></path>
                    <path d="M25.0063758,53.5522571 L24.9790268,53.5600333 L18.0206376,51.666869 L17.5756711,46.6464929 L14.1946309,46.6464929 L11.3038591,46.6464929 L12.1791946,56.5302 L24.9775168,60.1099524 L25.0063758,60.1018381 L25.0063758,53.5522571 L25.0063758,53.5522571 Z" id="Shape" fill="#FFFFFF"></path>
                    <path d="M4.69597315,0.0228214286 L7.87114094,0.0228214286 L7.87114094,3.18333571 L10.7756711,3.18333571 L10.7756711,0.0228214286 L13.9510067,0.0228214286 L13.9510067,9.59395952 L10.7758389,9.59395952 L10.7758389,6.38915476 L7.87147651,6.38915476 L7.87147651,9.59395952 L4.69597315,9.59395952 L4.69597315,0.0228214286 L4.69597315,0.0228214286 Z" id="Shape" fill="#161615"></path>
                    <path d="M18.1261745,3.19669048 L15.3308725,3.19669048 L15.3308725,0.0228214286 L24.0979866,0.0228214286 L24.0979866,3.19669048 L21.3015101,3.19669048 L21.3015101,9.59395952 L18.1263423,9.59395952 L18.1263423,3.19669048 L18.1261745,3.19669048 L18.1261745,3.19669048 Z" id="Shape" fill="#161615"></path>
                    <path d="M25.4894295,0.0228214286 L28.8003356,0.0228214286 L30.836745,3.38585476 L32.8714765,0.0228214286 L36.1833893,0.0228214286 L36.1833893,9.59395952 L33.0213087,9.59395952 L33.0213087,4.84997619 L30.8365772,8.25290476 L30.782047,8.25290476 L28.5961409,4.84997619 L28.5961409,9.59395952 L25.4892617,9.59395952 L25.4892617,0.0228214286 L25.4894295,0.0228214286 L25.4894295,0.0228214286 Z" id="Shape" fill="#161615"></path>
                    <path d="M37.7635906,0.0228214286 L40.9395973,0.0228214286 L40.9395973,6.43023333 L45.404698,6.43023333 L45.404698,9.59379048 L37.7634228,9.59379048 L37.7634228,0.0228214286 L37.7635906,0.0228214286 L37.7635906,0.0228214286 Z" id="Shape" fill="#161615"></path>
                    <path d="M24.9847315,37.204 L24.9847315,43.4986571 L32.6783557,43.4986571 L31.9531879,51.6626429 L24.9847315,53.5576667 L24.9847315,60.1069095 L37.7934564,56.5302 L37.8872483,55.4668905 L39.3555369,38.8943071 L39.5078859,37.204 L37.8243289,37.204 L24.9847315,37.204 L24.9847315,37.204 Z" id="Shape" fill="#FFFFFF"></path>
                    <path d="M24.9847315,24.4627119 L24.9847315,28.3724452 L24.9847315,30.7423238 L24.9847315,30.7578762 L40.0563758,30.7578762 L40.0765101,30.7578762 L40.2018456,29.3429476 L40.4864094,26.1516667 L40.635906,24.4627119 L24.9847315,24.4627119 L24.9847315,24.4627119 Z" id="Shape" fill="#FFFFFF"></path>
                </g>
            </g>
        </g>
    </g>
</svg>