<?xml version="1.0" encoding="UTF-8" standalone="no"?>
<svg width="50px" height="46px" viewBox="0 0 50 46" version="1.1" xmlns="http://www.w3.org/2000/svg" xmlns:xlink="http://www.w3.org/1999/xlink" xmlns:sketch="http://www.bohemiancoding.com/sketch/ns">
    <!-- Generator: Sketch 3.2.2 (9983) - http://www.bohemiancoding.com/sketch -->
    <title>Sketch</title>
    <desc>Created with Sketch.</desc>
    <defs></defs>
    <g id="Page-1" stroke="none" stroke-width="1" fill="none" fill-rule="evenodd" sketch:type="MSPage">
        <path d="M42.9078383,3.80440146 L34.1742574,0 L15.8169967,0 L7.08341584,3.80440146 L7.10542736e-15,12.021781 L24.9969472,45.9633175 L49.9912541,12.021781 L42.9078383,3.80440146 Z M46.9859736,12.3652701 L40.3877063,17.5408577 L35.1363861,9.78163139 L42.52467,6.20882482 L46.9859736,12.3652701 Z M37.195132,19.0764015 L12.7961221,19.0764015 L17.7956271,10.0724891 L32.1957096,10.0724891 L37.195132,19.0764015 Z M32.1755589,1.68262342 L38.9264026,4.63298905 L32.1479373,7.87212774 L17.8433168,7.87212774 L11.0648515,4.63298905 L17.7406235,1.68063555 L32.1755589,1.68262342 Z M7.38407591,6.20882482 L14.7723597,9.78163139 L9.5210396,17.5408577 L2.92285479,12.3652701 L7.38407591,6.20882482 Z M5.60726073,17.4544818 L9.83506601,20.8181898 L19.9383663,37.5204708 L5.60726073,17.4544818 Z M13.3831683,21.8196971 L36.6081683,21.8196971 L24.9969472,42.8076168 L13.3831683,21.8196971 Z M29.9703795,37.5204708 L40.0736799,20.8181898 L44.3014851,17.4544818 L29.9703795,37.5204708 Z" id="Sketch" fill="#161615" sketch:type="MSShapeGroup"></path>
    </g>
</svg>