<?xml version="1.0" encoding="UTF-8" standalone="no"?>
<svg width="50px" height="51px" viewBox="0 0 50 51" version="1.1" xmlns="http://www.w3.org/2000/svg" xmlns:xlink="http://www.w3.org/1999/xlink" xmlns:sketch="http://www.bohemiancoding.com/sketch/ns">
    <!-- Generator: Sketch 3.2.2 (9983) - http://www.bohemiancoding.com/sketch -->
    <title>bootstrap</title>
    <desc>Created with Sketch.</desc>
    <defs></defs>
    <g id="Page-1" stroke="none" stroke-width="1" fill="none" fill-rule="evenodd" sketch:type="MSPage">
        <g id="bootstrap" sketch:type="MSLayerGroup">
            <rect id="rect3050" fill="#000000" sketch:type="MSShapeGroup" x="2.19042879e-06" y="1.36338581e-07" width="49.9750124" height="50.9816126" rx="6"></rect>
            <path d="M25.3649022,21.9477251 C26.6411769,21.9477448 27.6089142,21.6657121 28.2681182,21.101627 C28.9272829,20.5375813 29.256873,19.7055844 29.2568927,18.6056325 C29.256873,17.5198291 28.9272829,16.6948828 28.2681182,16.1307937 C27.6089142,15.5526508 26.6411769,15.2635675 25.3649022,15.2635398 L20.8838553,15.2635398 L20.8838553,21.9477251 L25.3649022,21.9477251 M25.6383933,35.7602964 C27.2652993,35.7603004 28.4854866,35.4148121 29.298967,34.7238237 C30.126433,34.0328511 30.5401758,32.9893277 30.5401993,31.5932576 C30.5401758,30.2254057 30.1334454,29.2030382 29.3200081,28.526147 C28.5065277,27.8351784 27.279324,27.4896901 25.6383933,27.4896743 L20.8838553,27.4896743 L20.8838553,35.7602964 L25.6383933,35.7602964 M33.1699203,24.4014119 C34.9090205,24.9090881 36.2554348,25.8468482 37.2091787,27.2146922 C38.1628599,28.5825678 38.6397181,30.2606627 38.6397456,32.248985 C38.6397181,35.2949476 37.6158778,37.5653104 35.5682284,39.0600814 C33.520528,40.5548563 30.4069365,41.3022457 26.2274537,41.3022457 L12.7843051,41.3022457 L12.7843051,9.72159059 L24.944147,9.72159059 C29.3059598,9.72162215 32.4616257,10.3844002 34.4111526,11.7099247 C36.3746494,13.0355083 37.3564115,15.1578042 37.3564429,18.0768202 C37.3564115,19.6139224 36.9987717,20.9253772 36.2835158,22.0111806 C35.5682049,23.0829262 34.5303397,23.87967 33.1699203,24.4014119" id="path3841" fill="#FFFFFF" sketch:type="MSShapeGroup"></path>
        </g>
    </g>
</svg>