<?xml version="1.0" encoding="UTF-8" standalone="no"?>
<svg width="50px" height="74px" viewBox="0 0 50 74" version="1.1" xmlns="http://www.w3.org/2000/svg" xmlns:xlink="http://www.w3.org/1999/xlink" xmlns:sketch="http://www.bohemiancoding.com/sketch/ns">
    <!-- Generator: Sketch 3.2.2 (9983) - http://www.bohemiancoding.com/sketch -->
    <title>prestashop</title>
    <desc>Created with Sketch.</desc>
    <defs></defs>
    <g id="Page-1" stroke="none" stroke-width="1" fill="none" fill-rule="evenodd" sketch:type="MSPage">
        <g id="prestashop" sketch:type="MSLayerGroup">
            <path d="M44.6202532,9.3137931 L33.5443038,10.5258621 C32.2151899,3.18965517 26.6455696,-0.127586207 21.5189873,0.446551724 C20.8227848,0.510344828 20.1265823,0.701724138 19.4936709,0.893103448 C19.2405063,0.893103448 19.0506329,0.893103448 18.7974684,0.956896552 C13.6075949,1.53103448 9.74683544,6.69827586 9.49367089,13.0775862 L0.506329114,14.0344828 L5.25316456,59.9655172 L49.4303797,55.3086207 L44.6202532,9.3137931 L44.6202532,9.3137931 Z M32.721519,10.5896552 L30.7594937,10.7810345 C29.6835443,5.23103448 26.1392405,2.04137931 22.2151899,1.14827586 C26.7721519,1.02068966 31.5189873,4.08275862 32.721519,10.5896552 L32.721519,10.5896552 Z M19.6202532,1.65862069 C24.1139241,1.53103448 28.7341772,4.59310345 30,10.9086207 L12.9746835,12.6948276 C13.164557,7.52758621 15.8227848,3.12586207 19.6202532,1.65862069 L19.6202532,1.65862069 Z M17.2151899,2.04137931 C14.2405063,4.21034483 12.278481,8.16551724 12.1518987,12.7586207 L10.2531646,12.95 C10.5063291,7.71896552 13.2911392,3.38103448 17.2151899,2.04137931 L17.2151899,2.04137931 Z" id="Shape" fill="#161615" sketch:type="MSShapeGroup"></path>
            <path d="M15.9493671,57.2224138 C18.4810127,59.3913793 25.0632911,67.3655172 28.2278481,72.2775862 C29.0506329,72.15 40.3164557,70.4275862 41.4556962,70.2362069 C41.3924051,69.8534483 41.3924051,69.4706897 41.3924051,69.087931 C41.3924051,67.4293103 41.7088608,65.7706897 42.0253165,64.112069 C42.3417722,62.3258621 42.6582278,60.5396552 42.6582278,58.6258621 C42.6582278,57.8603448 42.5949367,57.0948276 42.4683544,56.2655172 L41.7721519,51.8637931 C41.6455696,50.9068966 40.9493671,49.5034483 40.1265823,48.9293103 C39.8101266,48.6741379 39.4303797,48.5465517 39.1139241,48.6103448 C38.2911392,48.737931 37.8481013,48.8017241 37.8481013,50.1413793 C37.8481013,50.7155172 37.9113924,51.4810345 38.1012658,52.5655172 L36.7088608,52.5655172 C35.8860759,47.2068966 35.1265823,47.2706897 33.9873418,47.462069 C33.2911392,47.5896552 32.4683544,47.7172414 32.4683544,49.6948276 C32.4683544,50.2051724 32.5316456,50.7793103 32.6582278,51.5448276 C32.6582278,51.5448276 32.278481,51.6086207 31.9620253,51.6724138 L31.9620253,51.6724138 L31.9620253,51.6724138 C31.6455696,51.7362069 31.2658228,51.8 31.2658228,51.8 L31.2658228,51.8 C30.6329114,47.6534483 30.443038,47.0793103 28.6075949,47.3344828 C28.0379747,47.3982759 27.6582278,47.6534483 27.4050633,47.9724138 C27.0253165,48.4827586 26.8987342,49.1844828 26.8987342,50.0137931 C26.8987342,50.7793103 27.0253165,51.6086207 27.1518987,52.3741379 L27.1518987,52.3741379 L25.7594937,52.5655172 L23.9873418,40.7637931 C23.8607595,39.7431034 23.5443038,39.0413793 23.0379747,38.7224138 C22.721519,38.4672414 22.3417722,38.4034483 21.835443,38.4672414 C21.3291139,38.5310345 20.9493671,38.7862069 20.6962025,39.1051724 C20.3164557,39.6155172 20.1898734,40.4448276 20.3164557,41.337931 L23.0379747,59.5189655 L21.6455696,59.7103448 C21.6455696,59.7103448 21.3291139,57.4775862 21.2025316,56.6482759 C20.6962025,56.2017241 19.2405063,54.9258621 17.6582278,53.7775862 C16.0759494,52.6293103 14.4936709,53.3310345 14.1139241,53.8413793 C13.9240506,54.0965517 13.7341772,54.287931 13.7341772,54.5431034 C13.7974684,55.1810345 14.3037975,55.8189655 15.9493671,57.2224138 L15.9493671,57.2224138 Z" id="Shape" fill="#161615" sketch:type="MSShapeGroup"></path>
            <path d="M43.7974684,55.9465517 L43.1012658,51.5448276 C42.9746835,50.5241379 42.2151899,48.6741379 40.8860759,47.6534483 C40.2531646,47.1431034 39.556962,46.9517241 38.7974684,47.0793103 C37.9113924,47.2068966 37.3417722,47.5258621 36.9620253,47.9724138 C36.2025316,46.1862069 35.2531646,45.8672414 33.7341772,46.1224138 C32.721519,46.3137931 32.0253165,46.6965517 31.5822785,47.3982759 C31.0126582,46.3137931 30.0632911,45.7396552 28.3544304,46.0586207 C27.4683544,46.1862069 26.7721519,46.5689655 26.2658228,47.2068966 C25.7594937,44.0172414 25.3164557,40.7637931 25.3164557,40.7637931 C25.1265823,39.3603448 24.6202532,38.4034483 23.8607595,37.8293103 C23.2278481,37.3827586 22.4683544,37.1913793 21.6455696,37.3189655 C20.7594937,37.4465517 20.0632911,37.8931034 19.6202532,38.5310345 C19.1772152,39.1689655 18.9240506,39.9982759 18.9240506,40.8913793 C18.9240506,41.2103448 18.9240506,41.4655172 18.9873418,41.7844828 C18.9873418,41.7844828 20.1265823,49.4396552 20.9493671,54.7344828 C20.2531646,54.1603448 19.4303797,53.4586207 18.5443038,52.8206897 C16.2658228,51.162069 13.7974684,52.1827586 13.0379747,53.2034483 C11.7088608,54.9896552 12.5316456,56.2017241 15,58.3068966 C17.4683544,60.412069 24.3037975,68.7689655 27.2151899,73.4258621 L27.4683544,73.8086207 L42.9113924,71.4482759 L42.7848101,70.7465517 C42.4683544,68.6413793 42.8481013,66.5362069 43.2278481,64.3672414 C43.7341772,61.7517241 44.2405063,59.0724138 43.7974684,55.9465517 L43.7974684,55.9465517 Z M14.1772152,53.9689655 C14.556962,53.4586207 16.1392405,52.6931034 17.721519,53.9051724 C19.2405063,55.0534483 20.7594937,56.3293103 21.2658228,56.7758621 C21.3924051,57.6051724 21.7088608,59.837931 21.7088608,59.837931 L23.1012658,59.6465517 L20.3164557,41.4655172 C20.1898734,40.5724138 20.3164557,39.7431034 20.6962025,39.2327586 C20.9493671,38.85 21.3291139,38.6586207 21.835443,38.5948276 C22.3417722,38.5310345 22.721519,38.5948276 23.0379747,38.85 C23.4810127,39.1689655 23.7974684,39.8706897 23.9873418,40.8913793 L25.7594937,52.6931034 L27.1518987,52.5017241 C27.0253165,51.7362069 26.8987342,50.9068966 26.8987342,50.1413793 C26.8987342,49.312069 27.0253165,48.6103448 27.4050633,48.1 C27.6582278,47.7172414 28.0379747,47.5258621 28.6075949,47.462069 C30.443038,47.2068966 30.6329114,47.7810345 31.2658228,51.9275862 L31.2658228,51.9275862 C31.2658228,51.9275862 31.5822785,51.8637931 31.9620253,51.8 L31.9620253,51.8 L31.9620253,51.8 C32.278481,51.7362069 32.6582278,51.6724138 32.6582278,51.6724138 C32.5316456,50.9068966 32.4683544,50.3327586 32.4683544,49.8224138 C32.4683544,47.7810345 33.2911392,47.6534483 33.9873418,47.5896552 C35.1265823,47.3982759 35.8860759,47.3344828 36.7088608,52.6931034 L38.1012658,52.5017241 C37.9113924,51.4172414 37.8481013,50.6517241 37.8481013,50.0775862 C37.8481013,48.737931 38.2911392,48.6741379 39.1139241,48.5465517 C39.4303797,48.4827586 39.8101266,48.6103448 40.1265823,48.8655172 C40.9493671,49.5034483 41.6455696,50.9068966 41.7721519,51.8 L42.4683544,56.2017241 C42.5949367,57.0310345 42.6582278,57.7965517 42.6582278,58.562069 C42.6582278,60.4758621 42.3417722,62.3258621 42.0253165,64.0482759 C41.7088608,65.7068966 41.3924051,67.3655172 41.3924051,69.0241379 C41.3924051,69.4068966 41.4556962,69.7896552 41.4556962,70.1724138 C40.3164557,70.3637931 29.0506329,72.0862069 28.2278481,72.2137931 C25.0632911,67.3017241 18.4810127,59.3275862 15.9493671,57.1586207 C14.3037975,55.7551724 13.8607595,55.1172414 13.8607595,54.6706897 C13.7974684,54.4793103 13.9873418,54.2241379 14.1772152,53.9689655 L14.1772152,53.9689655 Z" id="Shape" fill="#FFFFFF" sketch:type="MSShapeGroup"></path>
        </g>
    </g>
</svg>