<?xml version="1.0" encoding="UTF-8" standalone="no"?>
<svg width="50px" height="50px" viewBox="0 0 50 50" version="1.1" xmlns="http://www.w3.org/2000/svg" xmlns:xlink="http://www.w3.org/1999/xlink" xmlns:sketch="http://www.bohemiancoding.com/sketch/ns">
    <!-- Generator: Sketch 3.2.2 (9983) - http://www.bohemiancoding.com/sketch -->
    <title>photoshop</title>
    <desc>Created with Sketch.</desc>
    <defs></defs>
    <g id="Page-1" stroke="none" stroke-width="1" fill="none" fill-rule="evenodd" sketch:type="MSPage">
        <g id="photoshop" sketch:type="MSLayerGroup">
            <g id="Layer_2_1_" fill="#161615" sketch:type="MSShapeGroup">
                <rect id="Rectangle-path" x="0" y="0" width="50" height="50"></rect>
            </g>
            <g id="Layer_2" transform="translate(3.833333, 3.898305)" fill="#FFFFFF" sketch:type="MSShapeGroup">
                <rect id="Rectangle-path" x="0.143166667" y="0.0777966102" width="42.0473333" height="42.0477966"></rect>
            </g>
            <g id="Layer_4" transform="translate(12.000000, 13.898305)" fill="#161615" sketch:type="MSShapeGroup">
                <g id="Group" transform="translate(0.000000, 0.000000)">
                    <path d="M0.083,0.193898305 C0.083,0.193898305 3.24433333,0.109322034 5.84666667,0.109322034 C8.47633333,0.109322034 10.3513333,0.738474576 11.6101667,1.8440678 C12.8133333,2.88881356 13.6246667,4.66983051 13.6246667,6.69728814 C13.6246667,8.72474576 13.009,10.3837288 11.8896667,11.550339 C10.4348333,13.0555932 8.7395,13.9464407 5.84666667,14.0698305 C5.0475,14.1038983 4.30783333,14.1120339 4.30783333,14.1120339 L4.30783333,20.7025424 L0.0828333333,20.7025424 L0.083,0.193898305 L0.083,0.193898305 Z M4.30766667,10.4605085 C4.76666667,10.5059322 5.05433333,10.4840678 5.73466667,10.4757627 C8.001,10.4481356 9.3995,9.04661017 9.3995,6.92711864 C9.3995,5.02305085 8.24633333,3.45966102 6.07066667,3.37864407 C5.2035,3.34644068 4.30766667,3.37864407 4.30766667,3.37864407 L4.30766667,10.4605085 L4.30766667,10.4605085 Z" id="Shape"></path>
                    <path d="M15.237,16.1110169 C16.0885,16.6423729 18.0978333,17.4381356 19.4675,17.4381356 C20.8668333,17.4381356 21.4446667,16.9366102 21.4446667,16.1547458 C21.4446667,15.3718644 20.9883333,14.5494915 19.2538333,13.9549153 C16.1806667,12.890678 14.994,11.6167797 15.0246667,9.83372881 C15.0246667,6.95389831 17.3976667,4.79457627 21.0793333,4.79457627 C22.8138333,4.79457627 24.1991667,5.37118644 25.1113333,5.84033898 L25.1113333,9.29661017 C24.4415,8.92067797 22.5093333,8.08135593 21.2316667,8.08135593 C20.1053333,8.08135593 19.4666667,8.55067797 19.4666667,9.33254237 C19.4666667,10.0525424 20.0451667,10.4281356 21.8706667,11.0857627 C24.7,12.0871186 25.8866667,13.5576271 25.9168333,15.8110169 C25.9168333,18.659322 23.7578333,20.9242373 19.4666667,20.7867797 C17.9941667,20.739661 16.3626667,20.1477966 15.2368333,19.5225424 L15.2368333,16.1110169 L15.237,16.1110169 Z" id="Shape"></path>
                </g>
            </g>
        </g>
    </g>
</svg>