<?xml version="1.0" encoding="UTF-8" standalone="no"?>
<svg width="53px" height="51px" viewBox="0 0 53 51" version="1.1" xmlns="http://www.w3.org/2000/svg" xmlns:xlink="http://www.w3.org/1999/xlink" xmlns:sketch="http://www.bohemiancoding.com/sketch/ns">
    <!-- Generator: Sketch 3.2.2 (9983) - http://www.bohemiancoding.com/sketch -->
    <title>Fill 3</title>
    <desc>Created with Sketch.</desc>
    <defs></defs>
    <g id="Page-1" stroke="none" stroke-width="1" fill="none" fill-rule="evenodd" sketch:type="MSPage">
        <g id="GitHub-Mark" sketch:type="MSLayerGroup" transform="translate(-136.000000, -55.000000)" fill="#B5B5B5">
            <path d="M136.32,81.088467 C136.32,92.4134555 143.769093,102.020105 154.100779,105.409576 C155.401617,105.645612 155.875665,104.854106 155.875665,104.174323 C155.875665,103.566925 155.853319,101.954015 155.84055,99.8155321 C148.608529,101.363926 147.082639,96.3788537 147.082639,96.3788537 C145.899913,93.4173936 144.195257,92.6290347 144.195257,92.6290347 C141.834595,91.0397282 144.374023,91.0711996 144.374023,91.0711996 C146.983679,91.2521603 148.356342,93.7132249 148.356342,93.7132249 C150.675505,97.6298424 154.442349,96.4984451 155.923548,95.8422661 C156.159774,94.1868697 156.831741,93.0570459 157.573937,92.4166026 C151.80077,91.769865 145.730725,89.5700132 145.730725,79.7477848 C145.730725,76.949976 146.744261,74.6604306 148.407418,72.8697071 C148.13927,72.221396 147.247039,69.6139893 148.662798,66.0860438 C148.662798,66.0860438 150.844694,65.3968198 155.81182,68.7139069 C157.88518,68.1442743 160.110172,67.8610315 162.320798,67.8500166 C164.529828,67.8610315 166.753224,68.1442743 168.829776,68.7139069 C173.79371,65.3968198 175.972414,66.0860438 175.972414,66.0860438 C177.391365,69.6139893 176.499134,72.221396 176.232582,72.8697071 C177.898931,74.6604306 178.904487,76.949976 178.904487,79.7477848 C178.904487,89.5951903 172.824865,91.7619972 167.034141,92.3961462 C167.966275,93.1876523 168.797854,94.7517816 168.797854,97.143609 C168.797854,100.569273 168.765931,103.334036 168.765931,104.174323 C168.765931,104.8604 169.235191,105.6582 170.553586,105.408002 C180.877292,102.010663 188.32,92.4103083 188.32,81.088467 C188.32,66.9310513 176.677899,55.455 162.317606,55.455 C147.962101,55.455 136.32,66.9310513 136.32,81.088467 Z" id="Fill-3" sketch:type="MSShapeGroup"></path>
        </g>
    </g>
</svg>