<?xml version="1.0" encoding="UTF-8" standalone="no"?>
<svg width="176px" height="47px" viewBox="0 0 176 47" version="1.1" xmlns="http://www.w3.org/2000/svg" xmlns:xlink="http://www.w3.org/1999/xlink" xmlns:sketch="http://www.bohemiancoding.com/sketch/ns">
    <!-- Generator: Sketch 3.1.1 (8761) - http://www.bohemiancoding.com/sketch -->
    <title>AppVentus</title>
    <desc>Created with Sketch.</desc>
    <defs></defs>
    <g id="Page-1" stroke="none" stroke-width="1" fill="none" fill-rule="evenodd" sketch:type="MSPage">
        <g id="Desktop-HD" sketch:type="MSArtboardGroup" transform="translate(-1066.000000, -751.000000)" fill="#aa1f20 ">
            <path d="M1120.64299,760.436134 L1124.08921,760.436134 L1130.95465,778.380285 L1127.42341,778.380285 L1126.02654,774.684054 L1118.74271,774.684054 L1117.2905,778.380285 L1113.75926,778.380285 L1120.64299,760.436134 L1120.64299,760.436134 Z M1122.3873,765.193591 L1119.99231,771.353902 L1124.76824,771.353902 L1122.3873,765.193591 L1122.3873,765.193591 Z M1136.50644,765.108352 L1136.50644,766.571546 C1137.10514,765.969939 1137.75225,765.518396 1138.44801,765.217593 C1139.14377,764.917237 1139.88795,764.766275 1140.681,764.766275 C1142.40411,764.766275 1143.86837,765.42082 1145.07379,766.73036 C1146.27921,768.039676 1146.88192,769.719332 1146.88192,771.768657 C1146.88192,773.744407 1146.2589,775.397594 1145.0131,776.727098 C1143.76729,778.056826 1142.29075,778.721466 1140.58393,778.721466 C1139.82324,778.721466 1139.11565,778.585308 1138.46028,778.313216 C1137.80491,778.040451 1137.15356,777.595638 1136.50644,776.977431 L1136.50644,783.235094 L1133.21776,783.235094 L1133.21776,765.108352 L1136.50644,765.108352 L1136.50644,765.108352 Z M1139.98926,767.840486 C1138.9454,767.840486 1138.08005,768.198265 1137.39232,768.914272 C1136.7046,769.629831 1136.36073,770.564993 1136.36073,771.719756 C1136.36073,772.898746 1136.7046,773.852525 1137.39232,774.579973 C1138.08005,775.308093 1138.9454,775.672153 1139.98926,775.672153 C1141.00032,775.672153 1141.85205,775.301812 1142.54357,774.561804 C1143.23532,773.822019 1143.58119,772.878782 1143.58119,771.732094 C1143.58119,770.593256 1143.24134,769.659889 1142.56165,768.932442 C1141.8824,768.20477 1141.02464,767.840486 1139.98926,767.840486 L1139.98926,767.840486 Z M1152.91325,765.108352 L1152.91325,766.571546 C1153.51194,765.969939 1154.15905,765.518396 1154.85459,765.217593 C1155.55035,764.917237 1156.29453,764.766275 1157.08758,764.766275 C1158.81091,764.766275 1160.27495,765.42082 1161.48059,766.73036 C1162.68579,768.039676 1163.2885,769.719332 1163.2885,771.768657 C1163.2885,773.744407 1162.66571,775.397594 1161.41968,776.727098 C1160.17387,778.056826 1158.69756,778.721466 1156.99074,778.721466 C1156.23004,778.721466 1155.52223,778.585308 1154.86709,778.313216 C1154.21149,778.040451 1153.56036,777.595638 1152.91325,776.977431 L1152.91325,783.235094 L1149.62457,783.235094 L1149.62457,765.108352 L1152.91325,765.108352 L1152.91325,765.108352 Z M1156.39628,767.840486 C1155.3522,767.840486 1154.48663,768.198265 1153.79912,768.914272 C1153.1114,769.629831 1152.76753,770.564993 1152.76753,771.719756 C1152.76753,772.898746 1153.1114,773.852525 1153.79912,774.579973 C1154.48663,775.308093 1155.3522,775.672153 1156.39628,775.672153 C1157.40734,775.672153 1158.25863,775.301812 1158.95038,774.561804 C1159.6419,773.822019 1159.98799,772.878782 1159.98799,771.732094 C1159.98799,770.593256 1159.64814,769.659889 1158.96845,768.932442 C1158.2892,768.20477 1157.43144,767.840486 1156.39628,767.840486 L1156.39628,767.840486 Z M1166.86106,760.436134 L1171.3527,773.183848 L1175.90906,760.436134 L1179.3979,760.436134 L1172.96647,778.380285 L1169.69007,778.380285 L1163.36776,760.436134 L1166.86106,760.436134 Z M1193.31135,772.707856 L1182.66877,772.707856 C1182.82252,773.651092 1183.2331,774.40142 1183.90052,774.958613 C1184.56772,775.515807 1185.41945,775.79418 1186.45506,775.79418 C1187.69261,775.79418 1188.75655,775.358788 1189.64645,774.488902 L1192.43752,775.806068 C1191.74154,776.798654 1190.90832,777.531933 1189.93765,778.008374 C1188.96675,778.483694 1187.814,778.721466 1186.47938,778.721466 C1184.40817,778.721466 1182.72121,778.065126 1181.41872,776.751772 C1180.11624,775.438195 1179.46511,773.793307 1179.46511,771.817333 C1179.46511,769.792234 1180.11445,768.110783 1181.41292,766.773204 C1182.71139,765.435625 1184.33922,764.766275 1186.29707,764.766275 C1188.37609,764.766275 1190.06685,765.435625 1191.36978,766.773204 C1192.67204,768.110783 1193.3234,769.877249 1193.3234,772.073723 L1193.31135,772.707856 L1193.31135,772.707856 Z M1189.99834,770.084738 C1189.77966,769.344954 1189.34811,768.743122 1188.70389,768.279466 C1188.05923,767.81626 1187.31215,767.584096 1186.46086,767.584096 C1185.53705,767.584096 1184.72682,767.844523 1184.02994,768.365154 C1183.59236,768.690408 1183.18735,769.263752 1182.81426,770.084738 L1189.99834,770.084738 L1189.99834,770.084738 Z M1195.99308,765.108352 L1199.30608,765.108352 L1199.30608,766.468138 C1200.05718,765.831762 1200.73776,765.388519 1201.34806,765.13998 C1201.95769,764.890768 1202.58182,764.766275 1203.22023,764.766275 C1204.52874,764.766275 1205.63932,765.225892 1206.55264,766.144903 C1207.31981,766.925288 1207.70361,768.080276 1207.70361,769.609419 L1207.70361,778.380285 L1204.42698,778.380285 L1204.42698,772.567884 C1204.42698,770.984009 1204.35647,769.932654 1204.21522,769.412472 C1204.07375,768.892514 1203.82785,768.496377 1203.47662,768.224061 C1203.12539,767.951969 1202.6916,767.81626 1202.17547,767.81626 C1201.5056,767.81626 1200.93011,768.04147 1200.45013,768.492115 C1199.96993,768.943433 1199.63678,769.566575 1199.45134,770.362887 C1199.35472,770.777193 1199.30608,771.674445 1199.30608,773.055541 L1199.30608,778.380285 L1195.99308,778.380285 L1195.99308,765.108352 M1211.30759,760.216308 L1214.62037,760.216308 L1214.62037,765.108352 L1216.58671,765.108352 L1216.58671,767.974401 L1214.62037,767.974401 L1214.62037,778.380285 L1211.30759,778.380285 L1211.30759,767.974401 L1209.60881,767.974401 L1209.60881,765.108352 L1211.30759,765.108352 L1211.30759,760.216308 M1218.34574,765.108352 L1221.69512,765.108352 L1221.69512,771.500154 C1221.69512,772.744194 1221.78036,773.608697 1221.94995,774.09254 C1222.12065,774.57616 1222.39423,774.952333 1222.77178,775.220835 C1223.14845,775.489338 1223.61259,775.623253 1224.16442,775.623253 C1224.71647,775.623253 1225.18418,775.491133 1225.56999,775.226668 C1225.95469,774.962651 1226.24121,774.574365 1226.42709,774.06181 C1226.56499,773.679804 1226.63394,772.862183 1226.63394,771.609843 L1226.63394,765.108352 L1229.9465,765.108352 L1229.9465,770.731433 C1229.9465,773.04926 1229.7653,774.635378 1229.40047,775.489338 C1228.95619,776.530151 1228.30037,777.329379 1227.43502,777.886124 C1226.56967,778.443093 1225.46936,778.721466 1224.13429,778.721466 C1222.68654,778.721466 1221.51504,778.39666 1220.6218,777.746152 C1219.72722,777.09542 1219.09796,776.188522 1218.73468,775.025683 C1218.47472,774.220399 1218.34574,772.756532 1218.34574,770.633857 L1218.34574,765.108352 M1241.35445,766.9623 L1239.30355,769.023513 C1238.46988,768.194227 1237.71321,767.779248 1237.03396,767.779248 C1236.66153,767.779248 1236.37056,767.858655 1236.16058,768.017469 C1235.95015,768.176058 1235.84483,768.373454 1235.84483,768.609207 C1235.84483,768.78776 1235.91155,768.952854 1236.04477,769.102695 C1236.17865,769.253883 1236.50779,769.458905 1237.03396,769.719332 L1238.24763,770.328791 C1239.52557,770.963373 1240.40319,771.609843 1240.88094,772.268875 C1241.3578,772.927458 1241.59701,773.699993 1241.59701,774.586702 C1241.59701,775.765468 1241.16612,776.749978 1240.30456,777.538663 C1239.44256,778.327123 1238.28802,778.721466 1236.83983,778.721466 C1234.9141,778.721466 1233.37732,777.965306 1232.22835,776.452539 L1234.26743,774.220399 C1234.6557,774.675979 1235.11047,775.043852 1235.63262,775.324244 C1236.15411,775.605084 1236.61713,775.745504 1237.02169,775.745504 C1237.45905,775.745504 1237.81094,775.639852 1238.0776,775.428325 C1238.3447,775.216573 1238.47792,774.972521 1238.47792,774.695943 C1238.47792,774.18406 1237.99682,773.683842 1237.03396,773.195512 L1235.91735,772.63473 C1233.78165,771.552868 1232.71414,770.198914 1232.71414,768.572195 C1232.71414,767.523083 1233.11646,766.626727 1233.92134,765.882905 C1234.72644,765.138186 1235.75535,764.766275 1237.01008,764.766275 C1237.86717,764.766275 1238.67384,764.95537 1239.43118,765.334011 C1240.18675,765.711754 1240.82828,766.254816 1241.35445,766.9623 M1135.80171,787.023878 C1135.85305,787.016545 1135.92271,787.011045 1136.01071,787.007378 C1136.09871,787.003711 1136.17938,787.001878 1136.25271,787.001878 C1136.33338,787.001878 1136.41588,787.003711 1136.50021,787.007378 C1136.58455,787.011045 1136.65238,787.016545 1136.70371,787.023878 L1139.34371,794.932878 C1139.29971,794.940211 1139.23738,794.945711 1139.15671,794.949378 C1139.07605,794.953045 1138.99905,794.954878 1138.92571,794.954878 C1138.85971,794.954878 1138.79005,794.953045 1138.71671,794.949378 C1138.64338,794.945711 1138.58105,794.940211 1138.52971,794.932878 L1137.86971,792.919878 L1134.61371,792.919878 L1133.98671,794.932878 C1133.92805,794.940211 1133.86021,794.945711 1133.78321,794.949378 C1133.70621,794.953045 1133.63471,794.954878 1133.56871,794.954878 C1133.49538,794.954878 1133.42021,794.953045 1133.34321,794.949378 C1133.26621,794.945711 1133.20571,794.940211 1133.16171,794.932878 L1135.80171,787.023878 Z M1137.64971,792.215878 L1136.23071,787.815878 L1134.83371,792.215878 L1137.64971,792.215878 Z M1143.42471,794.371878 C1144.07005,794.386545 1144.53021,794.520377 1144.80521,794.773378 C1145.08021,795.026379 1145.21771,795.361876 1145.21771,795.779878 C1145.21771,796.065879 1145.14438,796.324377 1144.99771,796.555378 C1144.85105,796.786379 1144.64571,796.984377 1144.38171,797.149378 C1144.11771,797.314379 1143.80422,797.442711 1143.44121,797.534378 C1143.07821,797.626045 1142.68405,797.671878 1142.25871,797.671878 C1141.92871,797.671878 1141.62621,797.646212 1141.35121,797.594878 C1141.07621,797.543544 1140.83788,797.461045 1140.63621,797.347378 C1140.43455,797.233711 1140.27871,797.083379 1140.16871,796.896378 C1140.05871,796.709377 1140.00371,796.480213 1140.00371,796.208878 C1140.00371,795.93021 1140.08438,795.662546 1140.24571,795.405878 C1140.40705,795.14921 1140.61605,794.958545 1140.87271,794.833878 C1140.73338,794.745878 1140.61605,794.634045 1140.52071,794.498378 C1140.42538,794.362711 1140.37771,794.195879 1140.37771,793.997878 C1140.37771,793.711877 1140.44555,793.473546 1140.58121,793.282878 C1140.71688,793.09221 1140.89838,792.919879 1141.12571,792.765878 C1140.86905,792.604544 1140.66371,792.388213 1140.50971,792.116878 C1140.35571,791.845543 1140.27871,791.52288 1140.27871,791.148878 C1140.27871,790.877543 1140.32455,790.622713 1140.41621,790.384378 C1140.50788,790.146043 1140.64538,789.938879 1140.82871,789.762878 C1141.01205,789.586877 1141.23755,789.447545 1141.50521,789.344878 C1141.77288,789.242211 1142.08271,789.190878 1142.43471,789.190878 C1142.73538,789.190878 1143.00305,789.229378 1143.23771,789.306378 C1143.47238,789.383378 1143.67771,789.484211 1143.85371,789.608878 C1143.92705,789.579545 1144.01871,789.546545 1144.12871,789.509878 C1144.23871,789.473211 1144.35971,789.442045 1144.49171,789.416378 C1144.62371,789.390711 1144.75938,789.368711 1144.89871,789.350378 C1145.03805,789.332045 1145.17371,789.322878 1145.30571,789.322878 C1145.33505,789.432879 1145.34971,789.553877 1145.34971,789.685878 C1145.34971,789.825212 1145.33505,789.949877 1145.30571,790.059878 L1144.26071,790.059878 C1144.36338,790.221212 1144.44221,790.39171 1144.49721,790.571378 C1144.55221,790.751046 1144.57971,790.943544 1144.57971,791.148878 C1144.57971,791.464213 1144.52471,791.742877 1144.41471,791.984878 C1144.30471,792.226879 1144.15255,792.430377 1143.95821,792.595378 C1143.76388,792.760379 1143.53655,792.886878 1143.27621,792.974878 C1143.01588,793.062878 1142.73538,793.106878 1142.43471,793.106878 C1142.11938,793.106878 1141.84438,793.066545 1141.60971,792.985878 C1141.40438,793.117879 1141.25955,793.244377 1141.17521,793.365378 C1141.09088,793.486379 1141.04871,793.623877 1141.04871,793.777878 C1141.04871,793.851212 1141.05971,793.920878 1141.08171,793.986878 C1141.10371,794.052878 1141.14955,794.113378 1141.21921,794.168378 C1141.28888,794.223378 1141.38605,794.267378 1141.51071,794.300378 C1141.63538,794.333378 1141.79671,794.349878 1141.99471,794.349878 L1143.42471,794.371878 Z M1141.86271,795.031878 C1141.51805,795.024545 1141.24121,795.12171 1141.03221,795.323378 C1140.82321,795.525046 1140.71871,795.790876 1140.71871,796.120878 C1140.71871,796.296879 1140.75905,796.443544 1140.83971,796.560878 C1140.92038,796.678212 1141.03221,796.769878 1141.17521,796.835878 C1141.31821,796.901878 1141.48505,796.947711 1141.67571,796.973378 C1141.86638,796.999045 1142.06805,797.011878 1142.28071,797.011878 C1142.96272,797.011878 1143.49438,796.896379 1143.87571,796.665378 C1144.25705,796.434377 1144.44771,796.157546 1144.44771,795.834878 C1144.44771,795.55621 1144.35238,795.358212 1144.16171,795.240878 C1143.97105,795.123544 1143.65938,795.061211 1143.22671,795.053878 L1141.86271,795.031878 Z M1141.04871,791.148878 C1141.04871,791.530213 1141.16055,791.851043 1141.38421,792.111378 C1141.60788,792.371713 1141.95804,792.501878 1142.43471,792.501878 C1142.91138,792.501878 1143.26338,792.371713 1143.49071,792.111378 C1143.71805,791.851043 1143.83171,791.530213 1143.83171,791.148878 C1143.83171,790.767543 1143.71805,790.446713 1143.49071,790.186378 C1143.26338,789.926043 1142.91138,789.795878 1142.43471,789.795878 C1141.95804,789.795878 1141.60788,789.926043 1141.38421,790.186378 C1141.16055,790.446713 1141.04871,790.767543 1141.04871,791.148878 L1141.04871,791.148878 Z M1146.77971,792.237878 C1146.77971,792.985882 1146.95205,793.535876 1147.29671,793.887878 C1147.64138,794.23988 1148.15838,794.415878 1148.84771,794.415878 C1149.12638,794.415878 1149.38488,794.392045 1149.62321,794.344378 C1149.86155,794.296711 1150.09438,794.232545 1150.32171,794.151878 C1150.35838,794.232545 1150.38771,794.331544 1150.40971,794.448878 C1150.43171,794.566212 1150.44638,794.672544 1150.45371,794.767878 C1150.24105,794.863212 1149.99171,794.936544 1149.70571,794.987878 C1149.41971,795.039212 1149.10805,795.064878 1148.77071,795.064878 C1148.28671,795.064878 1147.87055,794.993379 1147.52221,794.850378 C1147.17388,794.707377 1146.88788,794.507546 1146.66421,794.250878 C1146.44055,793.99421 1146.27555,793.688046 1146.16921,793.332378 C1146.06288,792.97671 1146.00971,792.586213 1146.00971,792.160878 C1146.00971,791.750209 1146.05921,791.365213 1146.15821,791.005878 C1146.25721,790.646543 1146.40755,790.331213 1146.60921,790.059878 C1146.81088,789.788543 1147.06938,789.575879 1147.38471,789.421878 C1147.70005,789.267877 1148.07771,789.190878 1148.51771,789.190878 C1148.88438,789.190878 1149.21071,789.253211 1149.49671,789.377878 C1149.78271,789.502545 1150.02288,789.67671 1150.21721,789.900378 C1150.41155,790.124046 1150.55821,790.39171 1150.65721,790.703378 C1150.75621,791.015046 1150.80571,791.354209 1150.80571,791.720878 C1150.80571,791.786878 1150.80388,791.871211 1150.80021,791.973878 C1150.79655,792.076545 1150.79105,792.164544 1150.78371,792.237878 L1146.77971,792.237878 Z M1150.07971,791.632878 C1150.07971,791.405544 1150.05038,791.181879 1149.99171,790.961878 C1149.93305,790.741877 1149.84138,790.549379 1149.71671,790.384378 C1149.59205,790.219377 1149.43071,790.085545 1149.23271,789.982878 C1149.03471,789.880211 1148.79638,789.828878 1148.51771,789.828878 C1148.00438,789.828878 1147.60471,789.986543 1147.31871,790.301878 C1147.03271,790.617213 1146.86038,791.060875 1146.80171,791.632878 L1150.07971,791.632878 Z M1152.40071,789.322878 C1152.45938,789.315545 1152.51621,789.310045 1152.57121,789.306378 C1152.62621,789.302711 1152.67938,789.300878 1152.73071,789.300878 C1152.78938,789.300878 1152.84438,789.302711 1152.89571,789.306378 C1152.94705,789.310045 1153.00205,789.315545 1153.06071,789.322878 C1153.07538,789.454879 1153.08638,789.619877 1153.09371,789.817878 C1153.10105,790.015879 1153.10471,790.188211 1153.10471,790.334878 C1153.17805,790.202877 1153.27338,790.069045 1153.39071,789.933378 C1153.50805,789.797711 1153.64555,789.674879 1153.80321,789.564878 C1153.96088,789.454877 1154.14238,789.365045 1154.34771,789.295378 C1154.55305,789.225711 1154.77671,789.190878 1155.01871,789.190878 C1155.66405,789.190878 1156.13338,789.383376 1156.42671,789.768378 C1156.72005,790.15338 1156.86671,790.694208 1156.86671,791.390878 L1156.86671,794.932878 C1156.82271,794.940211 1156.76221,794.945711 1156.68521,794.949378 C1156.60821,794.953045 1156.54771,794.954878 1156.50371,794.954878 C1156.46705,794.954878 1156.40838,794.953045 1156.32771,794.949378 C1156.24705,794.945711 1156.18471,794.940211 1156.14071,794.932878 L1156.14071,791.610878 C1156.14071,790.987542 1156.04355,790.540213 1155.84921,790.268878 C1155.65488,789.997543 1155.36338,789.861878 1154.97471,789.861878 C1154.71805,789.861878 1154.47605,789.913211 1154.24871,790.015878 C1154.02138,790.118545 1153.82521,790.267044 1153.66021,790.461378 C1153.49521,790.655712 1153.36505,790.895877 1153.26971,791.181878 C1153.17438,791.467879 1153.12671,791.794209 1153.12671,792.160878 L1153.12671,794.932878 C1153.08271,794.940211 1153.02221,794.945711 1152.94521,794.949378 C1152.86821,794.953045 1152.80771,794.954878 1152.76371,794.954878 C1152.72705,794.954878 1152.66838,794.953045 1152.58771,794.949378 C1152.50705,794.945711 1152.44471,794.940211 1152.40071,794.932878 L1152.40071,789.322878 Z M1162.41071,794.228878 C1162.44738,794.302212 1162.48221,794.401211 1162.51521,794.525878 C1162.54821,794.650545 1162.57205,794.753211 1162.58671,794.833878 C1162.40338,794.899878 1162.19438,794.954878 1161.95971,794.998878 C1161.72505,795.042878 1161.46471,795.064878 1161.17871,795.064878 C1160.26204,795.064878 1159.56538,794.813714 1159.08871,794.311378 C1158.61204,793.809042 1158.37371,793.081216 1158.37371,792.127878 C1158.37371,791.709876 1158.43238,791.323046 1158.54971,790.967378 C1158.66705,790.61171 1158.83938,790.301879 1159.06671,790.037878 C1159.29405,789.773877 1159.57821,789.566712 1159.91921,789.416378 C1160.26022,789.266044 1160.65438,789.190878 1161.10171,789.190878 C1161.38038,789.190878 1161.64621,789.211044 1161.89921,789.251378 C1162.15221,789.291712 1162.35205,789.337544 1162.49871,789.388878 C1162.49871,789.484212 1162.48588,789.594211 1162.46021,789.718878 C1162.43455,789.843545 1162.40705,789.942544 1162.37771,790.015878 C1162.23105,789.964544 1162.04588,789.920545 1161.82221,789.883878 C1161.59855,789.847211 1161.35838,789.828878 1161.10171,789.828878 C1160.77171,789.828878 1160.48388,789.885711 1160.23821,789.999378 C1159.99255,790.113045 1159.78721,790.272544 1159.62221,790.477878 C1159.45721,790.683212 1159.33438,790.92521 1159.25371,791.203878 C1159.17305,791.482546 1159.13271,791.790543 1159.13271,792.127878 C1159.13271,792.919882 1159.32154,793.501043 1159.69921,793.871378 C1160.07688,794.241713 1160.58838,794.426878 1161.23371,794.426878 C1161.45371,794.426878 1161.66455,794.408545 1161.86621,794.371878 C1162.06788,794.335211 1162.24938,794.287545 1162.41071,794.228878 L1162.41071,794.228878 Z M1164.26971,792.237878 C1164.26971,792.985882 1164.44205,793.535876 1164.78671,793.887878 C1165.13138,794.23988 1165.64838,794.415878 1166.33771,794.415878 C1166.61638,794.415878 1166.87488,794.392045 1167.11321,794.344378 C1167.35155,794.296711 1167.58438,794.232545 1167.81171,794.151878 C1167.84838,794.232545 1167.87771,794.331544 1167.89971,794.448878 C1167.92171,794.566212 1167.93638,794.672544 1167.94371,794.767878 C1167.73105,794.863212 1167.48171,794.936544 1167.19571,794.987878 C1166.90971,795.039212 1166.59805,795.064878 1166.26071,795.064878 C1165.77671,795.064878 1165.36055,794.993379 1165.01221,794.850378 C1164.66388,794.707377 1164.37788,794.507546 1164.15421,794.250878 C1163.93055,793.99421 1163.76555,793.688046 1163.65921,793.332378 C1163.55288,792.97671 1163.49971,792.586213 1163.49971,792.160878 C1163.49971,791.750209 1163.54921,791.365213 1163.64821,791.005878 C1163.74721,790.646543 1163.89755,790.331213 1164.09921,790.059878 C1164.30088,789.788543 1164.55938,789.575879 1164.87471,789.421878 C1165.19005,789.267877 1165.56771,789.190878 1166.00771,789.190878 C1166.37438,789.190878 1166.70071,789.253211 1166.98671,789.377878 C1167.27271,789.502545 1167.51288,789.67671 1167.70721,789.900378 C1167.90155,790.124046 1168.04821,790.39171 1168.14721,790.703378 C1168.24621,791.015046 1168.29571,791.354209 1168.29571,791.720878 C1168.29571,791.786878 1168.29388,791.871211 1168.29021,791.973878 C1168.28655,792.076545 1168.28105,792.164544 1168.27371,792.237878 L1164.26971,792.237878 Z M1167.56971,791.632878 C1167.56971,791.405544 1167.54038,791.181879 1167.48171,790.961878 C1167.42305,790.741877 1167.33138,790.549379 1167.20671,790.384378 C1167.08205,790.219377 1166.92071,790.085545 1166.72271,789.982878 C1166.52471,789.880211 1166.28638,789.828878 1166.00771,789.828878 C1165.49438,789.828878 1165.09471,789.986543 1164.80871,790.301878 C1164.52271,790.617213 1164.35038,791.060875 1164.29171,791.632878 L1167.56971,791.632878 Z M1172.06871,787.023878 C1172.11271,787.016545 1172.17871,787.011045 1172.26671,787.007378 C1172.35471,787.003711 1172.43538,787.001878 1172.50871,787.001878 C1172.57471,787.001878 1172.65171,787.003711 1172.73971,787.007378 C1172.82771,787.011045 1172.89738,787.016545 1172.94871,787.023878 L1174.47771,794.085878 L1176.29271,787.023878 C1176.33671,787.016545 1176.40821,787.011045 1176.50721,787.007378 C1176.60621,787.003711 1176.68871,787.001878 1176.75471,787.001878 C1176.81338,787.001878 1176.89405,787.003711 1176.99671,787.007378 C1177.09938,787.011045 1177.17638,787.016545 1177.22771,787.023878 L1179.03171,794.085878 L1180.58271,787.023878 C1180.64138,787.016545 1180.70555,787.011045 1180.77521,787.007378 C1180.84488,787.003711 1180.91271,787.001878 1180.97871,787.001878 C1181.05205,787.001878 1181.13088,787.003711 1181.21521,787.007378 C1181.29955,787.011045 1181.36371,787.016545 1181.40771,787.023878 L1179.49371,794.932878 C1179.44238,794.940211 1179.36538,794.945711 1179.26271,794.949378 C1179.16005,794.953045 1179.07571,794.954878 1179.00971,794.954878 C1178.93638,794.954878 1178.84655,794.953045 1178.74021,794.949378 C1178.63388,794.945711 1178.55505,794.940211 1178.50371,794.932878 L1176.73271,788.046878 L1174.97271,794.932878 C1174.92138,794.940211 1174.84438,794.945711 1174.74171,794.949378 C1174.63905,794.953045 1174.55471,794.954878 1174.48871,794.954878 C1174.41538,794.954878 1174.32555,794.953045 1174.21921,794.949378 C1174.11288,794.945711 1174.03405,794.940211 1173.98271,794.932878 L1172.06871,787.023878 Z M1182.79371,792.237878 C1182.79371,792.985882 1182.96605,793.535876 1183.31071,793.887878 C1183.65538,794.23988 1184.17238,794.415878 1184.86171,794.415878 C1185.14038,794.415878 1185.39888,794.392045 1185.63721,794.344378 C1185.87555,794.296711 1186.10838,794.232545 1186.33571,794.151878 C1186.37238,794.232545 1186.40171,794.331544 1186.42371,794.448878 C1186.44571,794.566212 1186.46038,794.672544 1186.46771,794.767878 C1186.25505,794.863212 1186.00571,794.936544 1185.71971,794.987878 C1185.43371,795.039212 1185.12205,795.064878 1184.78471,795.064878 C1184.30071,795.064878 1183.88455,794.993379 1183.53621,794.850378 C1183.18788,794.707377 1182.90188,794.507546 1182.67821,794.250878 C1182.45455,793.99421 1182.28955,793.688046 1182.18321,793.332378 C1182.07688,792.97671 1182.02371,792.586213 1182.02371,792.160878 C1182.02371,791.750209 1182.07321,791.365213 1182.17221,791.005878 C1182.27121,790.646543 1182.42155,790.331213 1182.62321,790.059878 C1182.82488,789.788543 1183.08338,789.575879 1183.39871,789.421878 C1183.71405,789.267877 1184.09171,789.190878 1184.53171,789.190878 C1184.89838,789.190878 1185.22471,789.253211 1185.51071,789.377878 C1185.79671,789.502545 1186.03688,789.67671 1186.23121,789.900378 C1186.42555,790.124046 1186.57221,790.39171 1186.67121,790.703378 C1186.77021,791.015046 1186.81971,791.354209 1186.81971,791.720878 C1186.81971,791.786878 1186.81788,791.871211 1186.81421,791.973878 C1186.81055,792.076545 1186.80505,792.164544 1186.79771,792.237878 L1182.79371,792.237878 Z M1186.09371,791.632878 C1186.09371,791.405544 1186.06438,791.181879 1186.00571,790.961878 C1185.94705,790.741877 1185.85538,790.549379 1185.73071,790.384378 C1185.60605,790.219377 1185.44471,790.085545 1185.24671,789.982878 C1185.04871,789.880211 1184.81038,789.828878 1184.53171,789.828878 C1184.01838,789.828878 1183.61871,789.986543 1183.33271,790.301878 C1183.04671,790.617213 1182.87438,791.060875 1182.81571,791.632878 L1186.09371,791.632878 Z M1189.14071,794.261878 C1189.30938,794.320545 1189.48721,794.362711 1189.67421,794.388378 C1189.86121,794.414045 1190.06105,794.426878 1190.27371,794.426878 C1190.56705,794.426878 1190.84755,794.379212 1191.11521,794.283878 C1191.38288,794.188544 1191.61755,794.041879 1191.81921,793.843878 C1192.02088,793.645877 1192.18221,793.394713 1192.30321,793.090378 C1192.42421,792.786043 1192.48471,792.421213 1192.48471,791.995878 C1192.48471,791.328541 1192.35821,790.804213 1192.10521,790.422878 C1191.85221,790.041543 1191.44338,789.850878 1190.87871,789.850878 C1190.70271,789.850878 1190.51205,789.880211 1190.30671,789.938878 C1190.10138,789.997545 1189.91255,790.096544 1189.74021,790.235878 C1189.56788,790.375212 1189.42488,790.560377 1189.31121,790.791378 C1189.19755,791.022379 1189.14071,791.313876 1189.14071,791.665878 L1189.14071,794.261878 Z M1188.41471,786.847878 C1188.45871,786.840545 1188.51921,786.835045 1188.59621,786.831378 C1188.67321,786.827711 1188.73371,786.825878 1188.77771,786.825878 C1188.81438,786.825878 1188.87305,786.827711 1188.95371,786.831378 C1189.03438,786.835045 1189.09671,786.840545 1189.14071,786.847878 L1189.14071,790.103878 C1189.29471,789.86921 1189.51655,789.658379 1189.80621,789.471378 C1190.09588,789.284377 1190.47171,789.190878 1190.93371,789.190878 C1191.27838,789.190878 1191.59371,789.244044 1191.87971,789.350378 C1192.16571,789.456712 1192.40955,789.623544 1192.61121,789.850878 C1192.81288,790.078212 1192.97055,790.36421 1193.08421,790.708878 C1193.19788,791.053546 1193.25471,791.467876 1193.25471,791.951878 C1193.25471,792.927216 1192.98705,793.689875 1192.45171,794.239878 C1191.91638,794.789881 1191.14272,795.064878 1190.13071,795.064878 C1189.80071,795.064878 1189.48172,795.033712 1189.17371,794.971378 C1188.86571,794.909044 1188.61271,794.841212 1188.41471,794.767878 L1188.41471,786.847878 Z M1202.75871,789.916878 L1202.75871,788.915878 L1203.44071,788.255878 L1203.48471,788.255878 L1203.48471,789.916878 L1204.85971,789.916878 C1204.86705,789.968212 1204.87255,790.021378 1204.87621,790.076378 C1204.87988,790.131378 1204.88171,790.188211 1204.88171,790.246878 C1204.88171,790.305545 1204.87988,790.362378 1204.87621,790.417378 C1204.87255,790.472378 1204.86705,790.529211 1204.85971,790.587878 L1203.48471,790.587878 L1203.48471,792.413878 C1203.48471,792.861214 1203.40771,793.249876 1203.25371,793.579878 C1203.09971,793.90988 1202.88521,794.184877 1202.61021,794.404878 C1202.33521,794.624879 1202.00705,794.789877 1201.62571,794.899878 C1201.24438,795.009879 1200.82272,795.064878 1200.36071,795.064878 C1199.95738,795.064878 1199.57788,795.019045 1199.22221,794.927378 C1198.86655,794.835711 1198.55488,794.694546 1198.28721,794.503878 C1198.01955,794.31321 1197.80871,794.067546 1197.65471,793.766878 C1197.50071,793.46621 1197.42371,793.10688 1197.42371,792.688878 C1197.42371,792.468877 1197.45671,792.239713 1197.52271,792.001378 C1197.58871,791.763043 1197.68405,791.539379 1197.80871,791.330378 C1197.93338,791.121377 1198.08555,790.932546 1198.26521,790.763878 C1198.44488,790.59521 1198.64838,790.466878 1198.87571,790.378878 C1198.53105,790.254211 1198.24505,790.059879 1198.01771,789.795878 C1197.79038,789.531877 1197.67671,789.172547 1197.67671,788.717878 C1197.67671,788.402543 1197.73721,788.129379 1197.85821,787.898378 C1197.97921,787.667377 1198.14421,787.478545 1198.35321,787.331878 C1198.56221,787.185211 1198.80605,787.075212 1199.08471,787.001878 C1199.36338,786.928544 1199.65671,786.891878 1199.96471,786.891878 C1200.14071,786.891878 1200.33321,786.902878 1200.54221,786.924878 C1200.75121,786.946878 1200.97305,786.994544 1201.20771,787.067878 C1201.19305,787.199879 1201.17288,787.306211 1201.14721,787.386878 C1201.12155,787.467545 1201.08305,787.555544 1201.03171,787.650878 C1200.87771,787.614211 1200.72188,787.581211 1200.56421,787.551878 C1200.40655,787.522545 1200.22505,787.507878 1200.01971,787.507878 C1199.74105,787.507878 1199.50271,787.544544 1199.30471,787.617878 C1199.10671,787.691212 1198.94538,787.784711 1198.82071,787.898378 C1198.69605,788.012045 1198.60255,788.142211 1198.54021,788.288878 C1198.47788,788.435545 1198.44671,788.582211 1198.44671,788.728878 C1198.44671,789.12488 1198.57321,789.421877 1198.82621,789.619878 C1199.07921,789.817879 1199.48071,789.916878 1200.03071,789.916878 L1202.75871,789.916878 Z M1202.75871,790.587878 L1200.25071,790.587878 C1199.93538,790.587878 1199.65488,790.644711 1199.40921,790.758378 C1199.16355,790.872045 1198.95455,791.02421 1198.78221,791.214878 C1198.60988,791.405546 1198.47788,791.621877 1198.38621,791.863878 C1198.29455,792.105879 1198.24871,792.358877 1198.24871,792.622878 C1198.24871,793.165547 1198.43205,793.58721 1198.79871,793.887878 C1199.16538,794.188546 1199.69338,794.338878 1200.38271,794.338878 C1200.87405,794.338878 1201.27188,794.280212 1201.57621,794.162878 C1201.88055,794.045544 1202.11705,793.887879 1202.28571,793.689878 C1202.45438,793.491877 1202.57171,793.262713 1202.63771,793.002378 C1202.70371,792.742043 1202.74405,792.468879 1202.75871,792.182878 L1202.75871,790.587878 Z M1209.12771,787.023878 C1209.17171,787.016545 1209.24138,787.011045 1209.33671,787.007378 C1209.43205,787.003711 1209.52005,787.001878 1209.60071,787.001878 C1209.68138,787.001878 1209.76938,787.003711 1209.86471,787.007378 C1209.96005,787.011045 1210.03338,787.016545 1210.08471,787.023878 L1212.29571,792.292878 L1214.48471,787.023878 C1214.52871,787.016545 1214.60021,787.011045 1214.69921,787.007378 C1214.79821,787.003711 1214.88438,787.001878 1214.95771,787.001878 C1215.03105,787.001878 1215.11538,787.003711 1215.21071,787.007378 C1215.30605,787.011045 1215.37938,787.016545 1215.43071,787.023878 L1215.81571,794.932878 C1215.76438,794.940211 1215.70571,794.945711 1215.63971,794.949378 C1215.57371,794.953045 1215.50771,794.954878 1215.44171,794.954878 C1215.36838,794.954878 1215.29688,794.953045 1215.22721,794.949378 C1215.15755,794.945711 1215.10071,794.940211 1215.05671,794.932878 L1214.75971,788.200878 L1212.58171,793.293878 C1212.53038,793.308545 1212.47905,793.315878 1212.42771,793.315878 L1212.27371,793.315878 L1212.12521,793.315878 C1212.07755,793.315878 1212.02805,793.308545 1211.97671,793.293878 L1209.82071,788.189878 L1209.50171,794.932878 C1209.45038,794.940211 1209.39171,794.945711 1209.32571,794.949378 C1209.25971,794.953045 1209.19371,794.954878 1209.12771,794.954878 C1209.05438,794.954878 1208.98288,794.953045 1208.91321,794.949378 C1208.84355,794.945711 1208.78671,794.940211 1208.74271,794.932878 L1209.12771,787.023878 Z M1219.91871,794.426878 C1220.50538,794.426878 1220.94355,794.221547 1221.23321,793.810878 C1221.52288,793.400209 1221.66771,792.839215 1221.66771,792.127878 C1221.66771,791.416541 1221.52288,790.855547 1221.23321,790.444878 C1220.94355,790.034209 1220.50538,789.828878 1219.91871,789.828878 C1219.33204,789.828878 1218.89388,790.034209 1218.60421,790.444878 C1218.31455,790.855547 1218.16971,791.416541 1218.16971,792.127878 C1218.16971,792.839215 1218.31455,793.400209 1218.60421,793.810878 C1218.89388,794.221547 1219.33204,794.426878 1219.91871,794.426878 L1219.91871,794.426878 Z M1219.91871,795.064878 C1219.50071,795.064878 1219.13405,794.989712 1218.81871,794.839378 C1218.50338,794.689044 1218.24121,794.481879 1218.03221,794.217878 C1217.82321,793.953877 1217.66738,793.642213 1217.56471,793.282878 C1217.46205,792.923543 1217.41071,792.538547 1217.41071,792.127878 C1217.41071,791.717209 1217.46205,791.332213 1217.56471,790.972878 C1217.66738,790.613543 1217.82321,790.301879 1218.03221,790.037878 C1218.24121,789.773877 1218.50338,789.566712 1218.81871,789.416378 C1219.13405,789.266044 1219.50071,789.190878 1219.91871,789.190878 C1220.33672,789.190878 1220.70155,789.266044 1221.01321,789.416378 C1221.32488,789.566712 1221.58521,789.773877 1221.79421,790.037878 C1222.00321,790.301879 1222.16088,790.613543 1222.26721,790.972878 C1222.37355,791.332213 1222.42671,791.717209 1222.42671,792.127878 C1222.42671,792.538547 1222.37355,792.923543 1222.26721,793.282878 C1222.16088,793.642213 1222.00321,793.953877 1221.79421,794.217878 C1221.58521,794.481879 1221.32488,794.689044 1221.01321,794.839378 C1220.70155,794.989712 1220.33672,795.064878 1219.91871,795.064878 L1219.91871,795.064878 Z M1224.76971,794.261878 C1224.93838,794.320545 1225.11621,794.362711 1225.30321,794.388378 C1225.49021,794.414045 1225.69005,794.426878 1225.90271,794.426878 C1226.19605,794.426878 1226.47655,794.379212 1226.74421,794.283878 C1227.01188,794.188544 1227.24655,794.041879 1227.44821,793.843878 C1227.64988,793.645877 1227.81121,793.394713 1227.93221,793.090378 C1228.05321,792.786043 1228.11371,792.421213 1228.11371,791.995878 C1228.11371,791.328541 1227.98721,790.804213 1227.73421,790.422878 C1227.48121,790.041543 1227.07238,789.850878 1226.50771,789.850878 C1226.33171,789.850878 1226.14105,789.880211 1225.93571,789.938878 C1225.73038,789.997545 1225.54155,790.096544 1225.36921,790.235878 C1225.19688,790.375212 1225.05388,790.560377 1224.94021,790.791378 C1224.82655,791.022379 1224.76971,791.313876 1224.76971,791.665878 L1224.76971,794.261878 Z M1224.04371,786.847878 C1224.08771,786.840545 1224.14821,786.835045 1224.22521,786.831378 C1224.30221,786.827711 1224.36271,786.825878 1224.40671,786.825878 C1224.44338,786.825878 1224.50205,786.827711 1224.58271,786.831378 C1224.66338,786.835045 1224.72571,786.840545 1224.76971,786.847878 L1224.76971,790.103878 C1224.92371,789.86921 1225.14555,789.658379 1225.43521,789.471378 C1225.72488,789.284377 1226.10071,789.190878 1226.56271,789.190878 C1226.90738,789.190878 1227.22271,789.244044 1227.50871,789.350378 C1227.79471,789.456712 1228.03855,789.623544 1228.24021,789.850878 C1228.44188,790.078212 1228.59955,790.36421 1228.71321,790.708878 C1228.82688,791.053546 1228.88371,791.467876 1228.88371,791.951878 C1228.88371,792.927216 1228.61605,793.689875 1228.08071,794.239878 C1227.54538,794.789881 1226.77172,795.064878 1225.75971,795.064878 C1225.42971,795.064878 1225.11072,795.033712 1224.80271,794.971378 C1224.49471,794.909044 1224.24171,794.841212 1224.04371,794.767878 L1224.04371,786.847878 Z M1230.87471,789.938878 L1230.17071,789.938878 C1230.16338,789.902211 1230.15788,789.858212 1230.15421,789.806878 C1230.15055,789.755544 1230.14871,789.700545 1230.14871,789.641878 C1230.14871,789.583211 1230.15055,789.524545 1230.15421,789.465878 C1230.15788,789.407211 1230.16338,789.359545 1230.17071,789.322878 L1231.60071,789.322878 L1231.60071,794.932878 C1231.55671,794.940211 1231.49621,794.945711 1231.41921,794.949378 C1231.34221,794.953045 1231.28171,794.954878 1231.23771,794.954878 C1231.20105,794.954878 1231.14238,794.953045 1231.06171,794.949378 C1230.98105,794.945711 1230.91871,794.940211 1230.87471,794.932878 L1230.87471,789.938878 Z M1230.51171,787.947878 C1230.50438,787.881878 1230.49888,787.801212 1230.49521,787.705878 C1230.49155,787.610544 1230.48971,787.529878 1230.48971,787.463878 C1230.48971,787.405211 1230.49155,787.331878 1230.49521,787.243878 C1230.49888,787.155878 1230.50438,787.082545 1230.51171,787.023878 C1230.57771,787.016545 1230.65838,787.011045 1230.75371,787.007378 C1230.84905,787.003711 1230.92971,787.001878 1230.99571,787.001878 C1231.05438,787.001878 1231.12771,787.003711 1231.21571,787.007378 C1231.30371,787.011045 1231.37705,787.016545 1231.43571,787.023878 C1231.44305,787.082545 1231.44855,787.155878 1231.45221,787.243878 C1231.45588,787.331878 1231.45771,787.405211 1231.45771,787.463878 C1231.45771,787.529878 1231.45588,787.610544 1231.45221,787.705878 C1231.44855,787.801212 1231.44305,787.881878 1231.43571,787.947878 C1231.37705,787.955211 1231.30371,787.960711 1231.21571,787.964378 C1231.12771,787.968045 1231.05438,787.969878 1230.99571,787.969878 C1230.92971,787.969878 1230.84905,787.968045 1230.75371,787.964378 C1230.65838,787.960711 1230.57771,787.955211 1230.51171,787.947878 L1230.51171,787.947878 Z M1233.53671,786.847878 C1233.58071,786.840545 1233.64121,786.835045 1233.71821,786.831378 C1233.79521,786.827711 1233.85571,786.825878 1233.89971,786.825878 C1233.93638,786.825878 1233.99505,786.827711 1234.07571,786.831378 C1234.15638,786.835045 1234.21871,786.840545 1234.26271,786.847878 L1234.26271,793.634878 C1234.26271,793.825546 1234.28471,793.974044 1234.32871,794.080378 C1234.37271,794.186712 1234.42771,794.263711 1234.49371,794.311378 C1234.55971,794.359045 1234.63305,794.388378 1234.71371,794.399378 C1234.79438,794.410378 1234.86771,794.415878 1234.93371,794.415878 C1235.01438,794.415878 1235.09871,794.410378 1235.18671,794.399378 C1235.27471,794.388378 1235.34805,794.375545 1235.40671,794.360878 C1235.44338,794.448878 1235.46905,794.544211 1235.48371,794.646878 C1235.49838,794.749545 1235.50938,794.844878 1235.51671,794.932878 C1235.41405,794.969545 1235.29855,794.995211 1235.17021,795.009878 C1235.04188,795.024545 1234.92271,795.031878 1234.81271,795.031878 C1234.65871,795.031878 1234.50471,795.015378 1234.35071,794.982378 C1234.19671,794.949378 1234.05921,794.887045 1233.93821,794.795378 C1233.81721,794.703711 1233.72005,794.579045 1233.64671,794.421378 C1233.57338,794.263711 1233.53671,794.056546 1233.53671,793.799878 L1233.53671,786.847878 Z M1237.06771,792.237878 C1237.06771,792.985882 1237.24005,793.535876 1237.58471,793.887878 C1237.92938,794.23988 1238.44638,794.415878 1239.13571,794.415878 C1239.41438,794.415878 1239.67288,794.392045 1239.91121,794.344378 C1240.14955,794.296711 1240.38238,794.232545 1240.60971,794.151878 C1240.64638,794.232545 1240.67571,794.331544 1240.69771,794.448878 C1240.71971,794.566212 1240.73438,794.672544 1240.74171,794.767878 C1240.52905,794.863212 1240.27971,794.936544 1239.99371,794.987878 C1239.70771,795.039212 1239.39605,795.064878 1239.05871,795.064878 C1238.57471,795.064878 1238.15855,794.993379 1237.81021,794.850378 C1237.46188,794.707377 1237.17588,794.507546 1236.95221,794.250878 C1236.72855,793.99421 1236.56355,793.688046 1236.45721,793.332378 C1236.35088,792.97671 1236.29771,792.586213 1236.29771,792.160878 C1236.29771,791.750209 1236.34721,791.365213 1236.44621,791.005878 C1236.54521,790.646543 1236.69555,790.331213 1236.89721,790.059878 C1237.09888,789.788543 1237.35738,789.575879 1237.67271,789.421878 C1237.98805,789.267877 1238.36571,789.190878 1238.80571,789.190878 C1239.17238,789.190878 1239.49871,789.253211 1239.78471,789.377878 C1240.07071,789.502545 1240.31088,789.67671 1240.50521,789.900378 C1240.69955,790.124046 1240.84621,790.39171 1240.94521,790.703378 C1241.04421,791.015046 1241.09371,791.354209 1241.09371,791.720878 C1241.09371,791.786878 1241.09188,791.871211 1241.08821,791.973878 C1241.08455,792.076545 1241.07905,792.164544 1241.07171,792.237878 L1237.06771,792.237878 Z M1240.36771,791.632878 C1240.36771,791.405544 1240.33838,791.181879 1240.27971,790.961878 C1240.22105,790.741877 1240.12938,790.549379 1240.00471,790.384378 C1239.88005,790.219377 1239.71871,790.085545 1239.52071,789.982878 C1239.32271,789.880211 1239.08438,789.828878 1238.80571,789.828878 C1238.29238,789.828878 1237.89271,789.986543 1237.60671,790.301878 C1237.32071,790.617213 1237.14838,791.060875 1237.08971,791.632878 L1240.36771,791.632878 Z M1086.98863,751 C1075.39748,751 1066,760.471335 1066,772.156176 C1066,783.840755 1075.39748,793.312353 1086.98863,793.312353 C1098.58055,793.312353 1107.97725,783.840755 1107.97725,772.156176 C1107.97725,760.471335 1098.58055,751 1086.98863,751 Z M1074.28568,768.970356 C1073.44062,769.821886 1073.01731,770.844878 1073.01731,772.038018 C1073.01731,773.241661 1073.44062,774.341849 1074.28568,775.194955 C1075.13073,776.045172 1076.15059,776.542751 1077.34523,776.542751 L1081.29048,776.542751 L1081.29048,772.038018 C1081.29048,770.844878 1081.05369,769.821886 1080.19717,768.970356 C1079.35211,768.107536 1078.52868,767.676125 1077.34523,767.676125 C1076.15059,767.676125 1075.13073,768.107536 1074.28568,768.970356 Z M1085.45846,780.743948 L1077.34523,780.743948 C1074.94448,780.743948 1072.89982,779.90082 1071.20893,778.197497 C1069.52975,776.50494 1068.69017,774.452656 1068.69017,772.033817 C1068.69017,769.626268 1069.53575,767.571883 1071.22638,765.866985 C1072.90529,764.16445 1074.94448,763.31292 1077.34523,763.31292 C1079.73478,763.31292 1081.50357,764.171014 1083.19446,765.886678 C1084.88484,767.57976 1085.45846,769.629944 1085.45846,772.038018 L1085.45846,780.743948 L1085.45846,780.743948 Z M1101.69116,778.197497 C1100.00027,779.90082 1097.97359,780.743948 1095.58482,780.743948 L1086.76095,780.743948 L1086.76095,763.151436 L1090.92893,763.151436 L1090.92893,776.542751 L1095.58482,776.542751 C1096.768,776.542751 1097.45832,776.045172 1098.3039,775.194955 C1099.1599,774.341849 1099.26488,773.241661 1099.26488,772.038018 L1099.26488,763.151436 L1104.21435,763.151436 L1104.21435,772.038018 C1104.21435,774.457382 1103.38128,776.50494 1101.69116,778.197497 L1101.69116,778.197497 Z" id="AppVentus" sketch:type="MSShapeGroup"></path>
        </g>
    </g>
</svg>